<svg xmlns="http://www.w3.org/2000/svg" width="300" height="300" viewBox="0 0 300 300">
  <metadata><?xpacket begin="﻿" id="W5M0MpCehiHzreSzNTczkc9d"?>
<x:xmpmeta xmlns:x="adobe:ns:meta/" x:xmptk="Adobe XMP Core 5.6-c138 79.159824, 2016/09/14-01:09:01        ">
   <rdf:RDF xmlns:rdf="http://www.w3.org/1999/02/22-rdf-syntax-ns#">
      <rdf:Description rdf:about=""/>
   </rdf:RDF>
</x:xmpmeta>
                                                                                                    
                                                                                                    
                                                                                                    
                                                                                                    
                                                                                                    
                                                                                                    
                                                                                                    
                                                                                                    
                                                                                                    
                                                                                                    
                                                                                                    
                                                                                                    
                                                                                                    
                                                                                                    
                                                                                                    
                                                                                                    
                                                                                                    
                                                                                                    
                                                                                                    
                                                                                                    
                           
<?xpacket end="w"?></metadata>
<defs>
    <style>
      .cls-1 {
        fill: #6c126d;
      }

      .cls-1, .cls-11, .cls-12, .cls-15, .cls-16, .cls-17, .cls-2, .cls-3, .cls-4, .cls-5, .cls-7, .cls-8, .cls-9 {
        fill-rule: evenodd;
      }

      .cls-18, .cls-2 {
        fill: #fff;
      }

      .cls-3 {
        fill: #f5f5f5;
      }

      .cls-4 {
        fill: #070707;
      }

      .cls-5 {
        fill: #212121;
      }

      .cls-6 {
        fill: #ffd18f;
      }

      .cls-7 {
        fill: #fed59a;
      }

      .cls-10, .cls-8 {
        fill: #270e00;
      }

      .cls-9 {
        fill: #f6f6f6;
      }

      .cls-11 {
        fill: #230d00;
      }

      .cls-12, .cls-14 {
        fill: #a1a1a1;
      }

      .cls-13 {
        fill: #3d3d3d;
      }

      .cls-14 {
        opacity: 0.5;
      }

      .cls-15 {
        opacity: 0.2;
      }

      .cls-16 {
        opacity: 0.1;
      }

      .cls-17 {
        fill: #553815;
      }
    </style>
  </defs>
  <g id="Artboard_1" data-name="Artboard 1">
    <path class="cls-1" d="M150,22A127,127,0,1,1,23,149,127,127,0,0,1,150,22Zm6.5,118c2.485,0,4.5,2.462,4.5,5.5s-2.015,5.5-4.5,5.5-4.5-2.462-4.5-5.5S154.015,140,156.5,140Z"/>
    <path class="cls-2" d="M216,257s-23.477,20.162-71,19-65-21-65-21,9.785-34.206,24-50c21.5-7.7,43.228-16.5,85,0C192.105,211.686,207.173,233.366,216,257Z"/>
    <path id="neck" class="cls-3" d="M189.987,204.872l-88,.13,43.335-13Z"/>
    <path class="cls-4" d="M147,208l21,8,11-16-21-5S161.012,207.868,147,208Z"/>
    <path id="Shape_17_copy" data-name="Shape 17 copy" class="cls-4" d="M149,207l-23.625,8L113,199l23.625-5S133.237,206.868,149,207Z"/>
    <path class="cls-5" d="M147,208l9,3-9,14-10-14Z"/>
    <path class="cls-5" d="M147,223l8,50.518L145,292l-8-17.25Z"/>
    <rect id="Rounded_Rectangle_1" data-name="Rounded Rectangle 1" class="cls-6" x="136" y="169" width="22" height="39" rx="9" ry="9"/>
    <path class="cls-7" d="M181,121s1.133,72-34,72-30-71-30-71,2.563-13,32-13S181,121,181,121Z"/>
    <path class="cls-8" d="M162,175"/>
    <path class="cls-8" d="M176,144l-1,17,2-1s1.975-8.346,2-11S176,144,176,144Z"/>
    <path class="cls-8" d="M121,162l-1-15h-3s1.859,13.225,3,16S121,162,121,162Z"/>
    <path class="cls-8" d="M178,152s-2.847-23.508-8-28-24-4-24-4-6.444-3.009-10-2-5,6-5,6l-3-2-3,3-4-1s-0.686,23.2-2,27c-2.771.2-3,0-3,0s-3.105-35.716-2-41,13.094-12.5,20-13,3-1,3-1,1.321-5.992,4-6,31.715-1.768,40,11,8.981,7.9,10,22-7,14-7,14Z"/>
    <path id="mouth" class="cls-9" d="M154.352,177c1.3,0,.3,2.239,0,2.571s-5.055,3.584-8.443,3.429S139,180.3,139,179.571v-1.714c0-.975.7,0,1.535,0s2.829,2.572,5.374,2.572S153.127,177,154.352,177Z"/>
    <path class="cls-8" d="M154.756,139.851c-1.714.316,1.294,1.848,2.243,1.724s7.713-.315,9.183.814,3.175-.235,1.853-1.251S159.448,138.987,154.756,139.851Z"/>
    <path id="Shape_3_copy" data-name="Shape 3 copy" class="cls-8" d="M142.675,139.988c1.84,0.36-1.417,2-2.436,1.854s-8.3-.416-9.9.8-3.414-.287-1.979-1.38S137.635,139,142.675,139.988Z"/>
    <ellipse class="cls-10" cx="161" cy="149" rx="2" ry="3"/>
    <path class="cls-11" d="M143,172h8v4l-9-1Z"/>
    <ellipse id="Ellipse_2_copy" data-name="Ellipse 2 copy" class="cls-10" cx="136" cy="149" rx="2" ry="3"/>
    <path id="bear" class="cls-8" d="M149,173a3.453,3.453,0,0,1-5,0c-2.681,1.365-12,5-12,5l-1,8h4l1-7,10-2,13,2v7h4v-8Z"/>
    <path class="cls-8" d="M163,181l12-20-1,11-14,18Z"/>
    <path id="Shape_11_copy" data-name="Shape 11 copy" class="cls-8" d="M131.8,182L119,162l1.067,11L135,191Z"/>
    <path class="cls-8" d="M159,186l-10,4v-3h-5v3l-10-4h-1l-1,2,14,8,15-7,2-4-2-1Z"/>
    <path class="cls-8" d="M160,177l16-21-2,14-12,13Z"/>
    <path id="Shape_13_copy" data-name="Shape 13 copy" class="cls-8" d="M135,178l-17-21,2.125,14,12.75,13Z"/>
    <path class="cls-8" d="M149,173l3-3,11,5-3,4Z"/>
    <path class="cls-12" d="M143,174l-3-3"/>
    <path class="cls-8" d="M144,173l-2-3-11,4,2,5Z"/>
    <rect class="cls-13" x="164" y="230" width="17" height="2"/>
    <rect class="cls-14" x="164" y="232" width="1" height="6"/>
    <path class="cls-15" d="M215,257s-8.457,6.338-16,9c-4.106-10.8-21.437-45.322-34-52,8.981-10.988,11-11,11-11S194.457,208.324,215,257Z"/>
    <path class="cls-16" d="M152.234,192l11.38-6.861,11.38-15.684,0.875-11.762s1.893,3.517,5.253-15.683,2.626-5.881,2.626-5.881l5.252-4.9-0.875-17.644S180.17,99.652,177.62,97.9,149.243,92.82,147.857,93s-6.756,22.482-1.751,23.525,7,2.94,7,2.94l5.253,1.961s-0.246,20.224,4.377,23.524c3.239,3.632-8.984,18.917-8.754,25.486s1.664,2.545,1.751,7.841S152.038,188.681,152.234,192Z"/>
    <path class="cls-17" d="M135,97s-20.713.293-22,12c-0.274,10.382,1,40,1,40h2l-1-39s8.491-13.115,21-11A7.549,7.549,0,0,0,135,97Z"/>
    <path class="cls-17" d="M120,168l15,21h-2l-13-16v-5Z"/>
    <path class="cls-11" d="M152,170H142l-1,4,13,1Z"/>
    <path class="cls-17" d="M139,91.512A1.353,1.353,0,0,1,140.559,90c1.758,0.006,17.15.3,17.15,0.3s10.27,0.924,11.694,1.814a69.078,69.078,0,0,0,9.355,4.233c0.788,2.326,1.88,4.384.779,5.442A5.433,5.433,0,0,1,177.978,103s0.372-4.652-3.9-5.744-19.65-3.848-24.946-3.93-10.134,0-10.134,0V91.512Z"/>
    <path class="cls-17" d="M262,266"/>
    <path class="cls-2" d="M114,201l-10,5a144.764,144.764,0,0,0-23,50c9.265,6.086,9,6,9,6S97.845,213.874,114,201Z"/>
    <circle class="cls-18" cx="137" cy="148" r="1"/>
    <circle id="Ellipse_3_copy" data-name="Ellipse 3 copy" class="cls-18" cx="162" cy="148" r="1"/>
  </g>
</svg>
