<svg xmlns="http://www.w3.org/2000/svg" xmlns:xlink="http://www.w3.org/1999/xlink" width="1980" height="599.56" viewBox="-9.128 0 23404.255 7087">
  <metadata><?xpacket begin="﻿" id="W5M0MpCehiHzreSzNTczkc9d"?>
<x:xmpmeta xmlns:x="adobe:ns:meta/" x:xmptk="Adobe XMP Core 5.6-c138 79.159824, 2016/09/14-01:09:01        ">
   <rdf:RDF xmlns:rdf="http://www.w3.org/1999/02/22-rdf-syntax-ns#">
      <rdf:Description rdf:about=""/>
   </rdf:RDF>
</x:xmpmeta>
                                                                                                    
                                                                                                    
                                                                                                    
                                                                                                    
                                                                                                    
                                                                                                    
                                                                                                    
                                                                                                    
                                                                                                    
                                                                                                    
                                                                                                    
                                                                                                    
                                                                                                    
                                                                                                    
                                                                                                    
                                                                                                    
                                                                                                    
                                                                                                    
                                                                                                    
                                                                                                    
                           
<?xpacket end="w"?></metadata>
<defs>
    <style>
      .cls-1 {
        fill: url(#linear-gradient);
      }

      .cls-10, .cls-100, .cls-101, .cls-102, .cls-103, .cls-104, .cls-105, .cls-11, .cls-110, .cls-115, .cls-116, .cls-117, .cls-118, .cls-12, .cls-120, .cls-121, .cls-126, .cls-127, .cls-128, .cls-129, .cls-13, .cls-130, .cls-131, .cls-132, .cls-133, .cls-134, .cls-135, .cls-136, .cls-137, .cls-138, .cls-139, .cls-14, .cls-140, .cls-141, .cls-15, .cls-16, .cls-17, .cls-18, .cls-19, .cls-2, .cls-21, .cls-22, .cls-23, .cls-24, .cls-25, .cls-26, .cls-27, .cls-28, .cls-3, .cls-30, .cls-32, .cls-33, .cls-34, .cls-35, .cls-36, .cls-38, .cls-39, .cls-4, .cls-40, .cls-41, .cls-42, .cls-43, .cls-44, .cls-45, .cls-46, .cls-47, .cls-48, .cls-5, .cls-52, .cls-53, .cls-54, .cls-55, .cls-56, .cls-57, .cls-58, .cls-59, .cls-60, .cls-61, .cls-62, .cls-63, .cls-64, .cls-65, .cls-66, .cls-67, .cls-68, .cls-69, .cls-7, .cls-70, .cls-71, .cls-72, .cls-73, .cls-74, .cls-75, .cls-76, .cls-77, .cls-78, .cls-79, .cls-8, .cls-80, .cls-81, .cls-82, .cls-83, .cls-84, .cls-85, .cls-86, .cls-87, .cls-88, .cls-89, .cls-9, .cls-90, .cls-91, .cls-92, .cls-95, .cls-96, .cls-97, .cls-98, .cls-99 {
        fill-rule: evenodd;
      }

      .cls-2 {
        fill: url(#linear-gradient-2);
      }

      .cls-3 {
        fill: #b204bc;
      }

      .cls-4 {
        fill: #c904c5;
      }

      .cls-5 {
        fill: #b604bd;
      }

      .cls-6 {
        fill: #d181ff;
      }

      .cls-7 {
        fill: #6c04a8;
      }

      .cls-8 {
        fill: #400860;
      }

      .cls-36, .cls-41, .cls-9 {
        fill: none;
      }

      .cls-112, .cls-113, .cls-36, .cls-41, .cls-86, .cls-9, .cls-98 {
        stroke: #000;
      }

      .cls-9 {
        stroke-width: 20px;
      }

      .cls-10 {
        fill: #e6b87f;
      }

      .cls-11 {
        fill: #be996b;
      }

      .cls-12 {
        fill: #686868;
      }

      .cls-13 {
        fill: #d9ae79;
      }

      .cls-14 {
        fill: #f7d4a9;
      }

      .cls-119, .cls-14, .cls-27, .cls-90 {
        opacity: 0.5;
      }

      .cls-15, .cls-27 {
        fill: #a7875f;
      }

      .cls-16 {
        fill: #a78760;
      }

      .cls-17 {
        fill: #d4ab79;
      }

      .cls-18 {
        fill: #dbb07c;
      }

      .cls-19 {
        fill: #3a3a3a;
      }

      .cls-110, .cls-20 {
        fill: #282828;
      }

      .cls-21 {
        fill: #1d1d1d;
      }

      .cls-22 {
        fill: #9b9696;
      }

      .cls-23 {
        fill: #18130d;
      }

      .cls-24 {
        fill: #2c2c2c;
      }

      .cls-25 {
        fill: #201f1f;
      }

      .cls-26 {
        fill: #413424;
      }

      .cls-28 {
        fill: #4b3c2a;
      }

      .cls-29 {
        fill: #cca372;
      }

      .cls-30 {
        fill: #211a11;
      }

      .cls-31 {
        fill: #eb4437;
      }

      .cls-32 {
        fill: #318613;
      }

      .cls-33 {
        fill: #d6dc2b;
      }

      .cls-34 {
        fill: #c92bdc;
      }

      .cls-35 {
        fill: #2d69b4;
      }

      .cls-36 {
        stroke-width: 16px;
      }

      .cls-37 {
        font-size: 50px;
        fill: #4a4a4a;
        font-family: AppleMyungjo;
      }

      .cls-38 {
        fill: #761c93;
      }

      .cls-39 {
        fill: #711c8d;
      }

      .cls-40 {
        fill: #691a83;
      }

      .cls-41 {
        stroke-width: 19px;
      }

      .cls-42 {
        fill: #8b15a4;
      }

      .cls-125, .cls-43 {
        fill: #87159f;
      }

      .cls-44 {
        fill: #83159b;
      }

      .cls-45 {
        fill: #6a107d;
      }

      .cls-46, .cls-49 {
        fill: #1f1f1f;
      }

      .cls-47 {
        fill: #181818;
      }

      .cls-50 {
        fill: #292929;
      }

      .cls-51, .cls-93, .cls-96, .cls-99 {
        fill: #171717;
      }

      .cls-52 {
        fill: #bfbebe;
      }

      .cls-53 {
        fill: #262627;
      }

      .cls-124, .cls-54 {
        fill: #832884;
      }

      .cls-55 {
        fill: #812882;
      }

      .cls-122, .cls-56 {
        fill: #7c267d;
      }

      .cls-123, .cls-57 {
        fill: #79287a;
      }

      .cls-58 {
        fill: #7a297b;
      }

      .cls-59 {
        fill: #54266e;
      }

      .cls-60 {
        fill: #300c44;
      }

      .cls-118, .cls-141, .cls-61 {
        opacity: 0.2;
      }

      .cls-62 {
        fill: #2d0742;
      }

      .cls-63 {
        fill: #dfdfdf;
      }

      .cls-64 {
        fill: #ece9e9;
      }

      .cls-118, .cls-119, .cls-65, .cls-70, .cls-71, .cls-72, .cls-73, .cls-74, .cls-75, .cls-76, .cls-77, .cls-78, .cls-79, .cls-80, .cls-81, .cls-82, .cls-83, .cls-84, .cls-90, .cls-95 {
        fill: #fff;
      }

      .cls-66 {
        fill: #2f0c42;
      }

      .cls-67 {
        fill: #2e0a42;
      }

      .cls-68 {
        fill: #e1e1e1;
      }

      .cls-69 {
        fill: #f6f6f6;
      }

      .cls-70 {
        filter: url(#filter);
      }

      .cls-71 {
        filter: url(#filter-2);
      }

      .cls-72 {
        filter: url(#filter-3);
      }

      .cls-73 {
        filter: url(#filter-4);
      }

      .cls-74 {
        filter: url(#filter-5);
      }

      .cls-75 {
        filter: url(#filter-6);
      }

      .cls-76 {
        filter: url(#filter-7);
      }

      .cls-77 {
        filter: url(#filter-8);
      }

      .cls-78 {
        filter: url(#filter-9);
      }

      .cls-79 {
        filter: url(#filter-10);
      }

      .cls-80 {
        filter: url(#filter-11);
      }

      .cls-81 {
        filter: url(#filter-12);
      }

      .cls-82 {
        filter: url(#filter-13);
      }

      .cls-83 {
        filter: url(#filter-14);
      }

      .cls-84 {
        filter: url(#filter-15);
      }

      .cls-85 {
        fill: #f8cdff;
      }

      .cls-86 {
        fill: #141414;
      }

      .cls-86, .cls-98 {
        stroke-width: 3px;
      }

      .cls-87 {
        fill: #fed59a;
        filter: url(#filter-16);
      }

      .cls-88 {
        fill: #fee1b7;
      }

      .cls-89 {
        fill: #c9a777;
      }

      .cls-91 {
        fill: #1f0303;
      }

      .cls-92 {
        fill: #160101;
      }

      .cls-93 {
        filter: url(#filter-17);
      }

      .cls-94 {
        fill: #f5f5f5;
      }

      .cls-95 {
        opacity: 0.7;
      }

      .cls-97 {
        fill: #f9c258;
      }

      .cls-98 {
        fill: #bfbbbb;
      }

      .cls-99 {
        opacity: 0.1;
      }

      .cls-100 {
        fill: #dedede;
        filter: url(#filter-18);
      }

      .cls-101 {
        filter: url(#filter-19);
      }

      .cls-102 {
        fill: #c5b9b9;
      }

      .cls-103 {
        fill: #212121;
      }

      .cls-104 {
        fill: #303030;
      }

      .cls-105 {
        fill: #030303;
      }

      .cls-106 {
        fill: #101010;
      }

      .cls-107 {
        fill: #616161;
      }

      .cls-108 {
        fill: #444;
      }

      .cls-109 {
        fill: #333;
      }

      .cls-111 {
        fill: #444343;
      }

      .cls-112 {
        fill: #545454;
      }

      .cls-112, .cls-113 {
        stroke-width: 2px;
      }

      .cls-113, .cls-114 {
        fill: #0a0a0a;
      }

      .cls-115 {
        fill: #232222;
      }

      .cls-116 {
        fill: #ffbf67;
      }

      .cls-117 {
        fill: #fdce8e;
      }

      .cls-120 {
        fill: #3c0959;
      }

      .cls-121 {
        fill: #2d0743;
      }

      .cls-126 {
        fill: #7c04a9;
      }

      .cls-127 {
        fill: #9c04b3;
      }

      .cls-128 {
        fill: #8204ab;
      }

      .cls-129 {
        fill: #b804be;
      }

      .cls-130 {
        fill: #c304c3;
      }

      .cls-131 {
        fill: #9304b0;
      }

      .cls-132 {
        fill: #9b04b2;
      }

      .cls-133 {
        fill: #c604c4;
      }

      .cls-134 {
        fill: #c004c2;
      }

      .cls-135 {
        fill: #8c04ad;
      }

      .cls-136 {
        fill: #a504b6;
      }

      .cls-137 {
        fill: #3b0c56;
      }

      .cls-138 {
        fill: #e1b5e2;
      }

      .cls-139 {
        fill: #daa1db;
      }

      .cls-140 {
        fill: #bc7dbd;
      }

      .cls-141 {
        fill: #121111;
      }
    </style>
    <clipPath id="clip-path">
      <rect width="23386" height="7087"/>
    </clipPath>
    <linearGradient id="linear-gradient" x1="11678" y1="4528" x2="11678" gradientUnits="userSpaceOnUse">
      <stop offset="0" stop-color="#f613b3"/>
      <stop offset="0.461" stop-color="#621163"/>
      <stop offset="0.821" stop-color="#621163"/>
    </linearGradient>
    <linearGradient id="linear-gradient-2" y1="-1" x2="0" gradientUnits="userSpaceOnUse">
      <stop offset="0" stop-color="#d605cb"/>
      <stop offset="0.474" stop-color="#d605cb"/>
      <stop offset="1" stop-color="#NaNNaNNaN"/>
    </linearGradient>
    <filter id="filter" x="8357" y="2674.84" width="27" height="25.16" filterUnits="userSpaceOnUse">
      <feOffset result="offset" dy="4" in="SourceAlpha"/>
      <feGaussianBlur result="blur"/>
      <feFlood result="flood" flood-color="#a3a3a3"/>
      <feComposite result="composite" operator="in" in2="blur"/>
      <feBlend result="blend" in="SourceGraphic"/>
    </filter>
    <filter id="filter-2" x="8079" y="2659" width="28" height="24" filterUnits="userSpaceOnUse">
      <feOffset result="offset" dy="4" in="SourceAlpha"/>
      <feGaussianBlur result="blur"/>
      <feFlood result="flood" flood-color="#a3a3a3"/>
      <feComposite result="composite" operator="in" in2="blur"/>
      <feBlend result="blend" in="SourceGraphic"/>
    </filter>
    <filter id="filter-3" x="8078" y="2681" width="28" height="24" filterUnits="userSpaceOnUse">
      <feOffset result="offset" dy="4" in="SourceAlpha"/>
      <feGaussianBlur result="blur"/>
      <feFlood result="flood" flood-color="#a3a3a3"/>
      <feComposite result="composite" operator="in" in2="blur"/>
      <feBlend result="blend" in="SourceGraphic"/>
    </filter>
    <filter id="filter-4" x="8078" y="2704" width="28" height="24" filterUnits="userSpaceOnUse">
      <feOffset result="offset" dy="4" in="SourceAlpha"/>
      <feGaussianBlur result="blur"/>
      <feFlood result="flood" flood-color="#a3a3a3"/>
      <feComposite result="composite" operator="in" in2="blur"/>
      <feBlend result="blend" in="SourceGraphic"/>
    </filter>
    <filter id="filter-5" x="8078" y="2694" width="28" height="24" filterUnits="userSpaceOnUse">
      <feOffset result="offset" dy="4" in="SourceAlpha"/>
      <feGaussianBlur result="blur"/>
      <feFlood result="flood" flood-color="#a3a3a3"/>
      <feComposite result="composite" operator="in" in2="blur"/>
      <feBlend result="blend" in="SourceGraphic"/>
    </filter>
    <filter id="filter-6" x="8078" y="2671" width="28" height="24" filterUnits="userSpaceOnUse">
      <feOffset result="offset" dy="4" in="SourceAlpha"/>
      <feGaussianBlur result="blur"/>
      <feFlood result="flood" flood-color="#a3a3a3"/>
      <feComposite result="composite" operator="in" in2="blur"/>
      <feBlend result="blend" in="SourceGraphic"/>
    </filter>
    <filter id="filter-7" x="8096" y="2717" width="267" height="23" filterUnits="userSpaceOnUse">
      <feOffset result="offset" dy="4" in="SourceAlpha"/>
      <feGaussianBlur result="blur"/>
      <feFlood result="flood" flood-color="#a3a3a3"/>
      <feComposite result="composite" operator="in" in2="blur"/>
      <feBlend result="blend" in="SourceGraphic"/>
    </filter>
    <filter id="filter-8" x="8096" y="2706" width="267" height="23" filterUnits="userSpaceOnUse">
      <feOffset result="offset" dy="4" in="SourceAlpha"/>
      <feGaussianBlur result="blur"/>
      <feFlood result="flood" flood-color="#a3a3a3"/>
      <feComposite result="composite" operator="in" in2="blur"/>
      <feBlend result="blend" in="SourceGraphic"/>
    </filter>
    <filter id="filter-9" x="8096" y="2684" width="267" height="23" filterUnits="userSpaceOnUse">
      <feOffset result="offset" dy="4" in="SourceAlpha"/>
      <feGaussianBlur result="blur"/>
      <feFlood result="flood" flood-color="#a3a3a3"/>
      <feComposite result="composite" operator="in" in2="blur"/>
      <feBlend result="blend" in="SourceGraphic"/>
    </filter>
    <filter id="filter-10" x="8096" y="2694" width="267" height="23" filterUnits="userSpaceOnUse">
      <feOffset result="offset" dy="4" in="SourceAlpha"/>
      <feGaussianBlur result="blur"/>
      <feFlood result="flood" flood-color="#a3a3a3"/>
      <feComposite result="composite" operator="in" in2="blur"/>
      <feBlend result="blend" in="SourceGraphic"/>
    </filter>
    <filter id="filter-11" x="8096.09" y="2672.09" width="266.72" height="27.91" filterUnits="userSpaceOnUse">
      <feOffset result="offset" dy="4" in="SourceAlpha"/>
      <feGaussianBlur result="blur"/>
      <feFlood result="flood" flood-color="#a3a3a3"/>
      <feComposite result="composite" operator="in" in2="blur"/>
      <feBlend result="blend" in="SourceGraphic"/>
    </filter>
    <filter id="filter-12" x="8357" y="2694.84" width="27" height="25.16" filterUnits="userSpaceOnUse">
      <feOffset result="offset" dy="4" in="SourceAlpha"/>
      <feGaussianBlur result="blur"/>
      <feFlood result="flood" flood-color="#a3a3a3"/>
      <feComposite result="composite" operator="in" in2="blur"/>
      <feBlend result="blend" in="SourceGraphic"/>
    </filter>
    <filter id="filter-13" x="8357" y="2682.84" width="27" height="25.16" filterUnits="userSpaceOnUse">
      <feOffset result="offset" dy="4" in="SourceAlpha"/>
      <feGaussianBlur result="blur"/>
      <feFlood result="flood" flood-color="#a3a3a3"/>
      <feComposite result="composite" operator="in" in2="blur"/>
      <feBlend result="blend" in="SourceGraphic"/>
    </filter>
    <filter id="filter-14" x="8357" y="2714.84" width="27" height="25.16" filterUnits="userSpaceOnUse">
      <feOffset result="offset" dy="4" in="SourceAlpha"/>
      <feGaussianBlur result="blur"/>
      <feFlood result="flood" flood-color="#a3a3a3"/>
      <feComposite result="composite" operator="in" in2="blur"/>
      <feBlend result="blend" in="SourceGraphic"/>
    </filter>
    <filter id="filter-15" x="8357" y="2704.84" width="27" height="25.16" filterUnits="userSpaceOnUse">
      <feOffset result="offset" dy="4" in="SourceAlpha"/>
      <feGaussianBlur result="blur"/>
      <feFlood result="flood" flood-color="#a3a3a3"/>
      <feComposite result="composite" operator="in" in2="blur"/>
      <feBlend result="blend" in="SourceGraphic"/>
    </filter>
    <filter id="filter-16" x="8006.62" y="2198.62" width="394.38" height="454.07" filterUnits="userSpaceOnUse">
      <feOffset result="offset" dx="3.97" dy="-0.487" in="SourceAlpha"/>
      <feGaussianBlur result="blur"/>
      <feFlood result="flood" flood-color="#a3a3a3"/>
      <feComposite result="composite" operator="in" in2="blur"/>
      <feBlend result="blend" in="SourceGraphic"/>
    </filter>
    <filter id="filter-17" x="8348.78" y="2372.28" width="45.22" height="41.16" filterUnits="userSpaceOnUse">
      <feOffset result="offset" dx="3.97" dy="-0.487" in="SourceAlpha"/>
      <feGaussianBlur result="blur"/>
      <feFlood result="flood" flood-color="#a3a3a3"/>
      <feComposite result="composite" operator="in" in2="blur"/>
      <feBlend result="blend" in="SourceGraphic"/>
    </filter>
    <filter id="filter-18" x="8079.94" y="2413.44" width="57.9" height="97.56" filterUnits="userSpaceOnUse">
      <feOffset result="offset" dy="2" in="SourceAlpha"/>
      <feGaussianBlur result="blur"/>
      <feFlood result="flood" flood-color="#a3a3a3"/>
      <feComposite result="composite" operator="in" in2="blur"/>
      <feBlend result="blend" in="SourceGraphic"/>
    </filter>
    <filter id="filter-19" x="8073.72" y="2413.44" width="60.03" height="97.56" filterUnits="userSpaceOnUse">
      <feOffset result="offset" dy="2" in="SourceAlpha"/>
      <feGaussianBlur result="blur"/>
      <feFlood result="flood" flood-color="#a3a3a3"/>
      <feComposite result="composite" operator="in" in2="blur"/>
      <feBlend result="blend" in="SourceGraphic"/>
    </filter>
  </defs>
  <g clip-path="url(#clip-path)">
    <rect id="background" class="cls-1" x="-30" width="23416" height="4528"/>
    <path class="cls-2" d="M8469,2260"/>
    <path class="cls-3" d="M21364,1388l-153,237,208,218,116-259Z"/>
    <path class="cls-4" d="M21206,1621l-194,105,161,223,251-112Z"/>
    <path class="cls-5" d="M21017,1728l92.4-184,263.6-155-157.5,232Z"/>
    <g id="Clouds">
      <circle class="cls-6" cx="-0.5" cy="2970.5" r="1253.5"/>
      <circle id="Ellipse_1_copy_5" data-name="Ellipse 1 copy 5" class="cls-6" cx="1960" cy="3838" r="1835"/>
      <ellipse id="Ellipse_1_copy_9" data-name="Ellipse 1 copy 9" class="cls-6" cx="3700.5" cy="2619.5" rx="622.5" ry="466.5"/>
      <circle id="Ellipse_1_copy_12" data-name="Ellipse 1 copy 12" class="cls-6" cx="4228" cy="2814" r="775"/>
      <ellipse id="Ellipse_1_copy_13" data-name="Ellipse 1 copy 13" class="cls-6" cx="952" cy="2324" rx="462" ry="362"/>
      <ellipse id="Ellipse_1_copy_15" data-name="Ellipse 1 copy 15" class="cls-6" cx="2739.5" cy="2323.5" rx="315.5" ry="243.5"/>
      <ellipse id="Ellipse_1_copy_17" data-name="Ellipse 1 copy 17" class="cls-6" cx="7380" cy="2640.5" rx="583" ry="466.5"/>
      <ellipse id="Ellipse_1_copy_18" data-name="Ellipse 1 copy 18" class="cls-6" cx="7911.5" cy="3480" rx="927.5" ry="610"/>
      <ellipse id="Ellipse_1_copy_20" data-name="Ellipse 1 copy 20" class="cls-6" cx="9735" cy="2932" rx="279" ry="246"/>
      <ellipse id="Ellipse_1_copy_33" data-name="Ellipse 1 copy 33" class="cls-6" cx="5928" cy="2847" rx="279" ry="246"/>
      <ellipse id="Ellipse_1_copy_22" data-name="Ellipse 1 copy 22" class="cls-6" cx="11086" cy="3315" rx="279" ry="246"/>
      <ellipse id="Ellipse_1_copy_28" data-name="Ellipse 1 copy 28" class="cls-6" cx="9934" cy="3308.5" rx="1032" ry="466.5"/>
      <circle id="Ellipse_1_copy_11" data-name="Ellipse 1 copy 11" class="cls-6" cx="6569.5" cy="2993.5" r="773.5"/>
      <circle id="Ellipse_1_copy_14" data-name="Ellipse 1 copy 14" class="cls-6" cx="7924.5" cy="3211.5" r="531.5"/>
      <ellipse id="Ellipse_1_copy_16" data-name="Ellipse 1 copy 16" class="cls-6" cx="17250" cy="2976.5" rx="941" ry="531.5"/>
      <circle id="Ellipse_1_copy_21" data-name="Ellipse 1 copy 21" class="cls-6" cx="17230.5" cy="2855.5" r="531.5"/>
      <circle id="Ellipse_1_copy_23" data-name="Ellipse 1 copy 23" class="cls-6" cx="19670.5" cy="2413.5" r="531.5"/>
      <circle id="Ellipse_1_copy_24" data-name="Ellipse 1 copy 24" class="cls-6" cx="23200.5" cy="1839.5" r="531.5"/>
      <ellipse id="Ellipse_1_copy_25" data-name="Ellipse 1 copy 25" class="cls-6" cx="19325.5" cy="2118.5" rx="278.5" ry="265.5"/>
      <ellipse id="Ellipse_1_copy_29" data-name="Ellipse 1 copy 29" class="cls-6" cx="22535.5" cy="1731.5" rx="278.5" ry="265.5"/>
      <ellipse id="Ellipse_1_copy_32" data-name="Ellipse 1 copy 32" class="cls-6" cx="20777.5" cy="2636.5" rx="278.5" ry="265.5"/>
      <circle id="Ellipse_1_copy_26" data-name="Ellipse 1 copy 26" class="cls-6" cx="19144.5" cy="2566.5" r="531.5"/>
      <circle id="Ellipse_1_copy_27" data-name="Ellipse 1 copy 27" class="cls-6" cx="18722.5" cy="2814.5" r="531.5"/>
      <circle id="Ellipse_1_copy_19" data-name="Ellipse 1 copy 19" class="cls-6" cx="9323.5" cy="3234.5" r="484.5"/>
      <circle id="Ellipse_1_copy_3" data-name="Ellipse 1 copy 3" class="cls-6" cx="22067.5" cy="2722.5" r="1253.5"/>
    </g>
    <g id="Mountians">
      <path id="mountians_right" class="cls-7" d="M23472,1442L21359,2888l-1714-940-1643,780-518-339L14855,3661l-210-130-1012,480-622,444,10430,117Z"/>
      <path id="mountians_left" class="cls-7" d="M14112,4205L11755,2738l-739,619L9753,2788l-987,389L6947,2247,5875,2728l-995-515-873,442L2992,2087l-816,382-737-383L474,2608-50,2162-202,4133l14265,348Z"/>
      <path id="shadow_08" class="cls-8" d="M11763,2743l-44,89-574,574,1230,806,601,27-956-1097,162-28Z"/>
      <path id="mountians_left_shadow" class="cls-8" d="M1473,2139l422,626-292,92,652,1141-646-583L542,2626Z"/>
      <path id="shadow_07" class="cls-8" d="M2237,2518L3728,3613l341,225L3305,2611l157-83-416-413Z"/>
      <path id="shadow_06" class="cls-8" d="M4941,2249l-849,445,1217,802,717,103-518-662,339,22Z"/>
      <path id="shadow_05" class="cls-8" d="M5933,2777l1070-477,944,620-347,43L8946,3994,7573,3809Z"/>
      <path id="shadow_04" class="cls-8" d="M8839,3204l1582,938,840,2-980-883,244-40-720-406Z"/>
      <path id="shadow_03" class="cls-8" d="M19651,1958l-322,507,180,145L16905,4628l5679-41Z"/>
      <path id="shadow_02" class="cls-8" d="M17467,2414l295,441L15274,4019l-1153,184,2490-1145-87-59Z"/>
      <path id="shadow_01" class="cls-8" d="M23398,1562l-373,531,133-2-906,1103,1238,530,564-1645Z"/>
      <path id="kabel01" class="cls-9" d="M12529.2,3321.04s-169.7,104.96-149.8,227.16c-27,118.23-78.2,31.55-28.8,144.12,49.5,112.57,53.2,195.87,53.2,195.87"/>
      <path id="cfront" class="cls-10" d="M14213,4104l-1669-26s-41.2,13.47-43-43,49-2064,49-2064,5.6-54.72,34-54,1667-76,1667-76,49.7,13.78,50,51-36.6,2134.74-40,2176S14227.3,4107.1,14213,4104Z"/>
      <g id="Computer">
        <path id="cright" class="cls-11" d="M14264,1840l487,302,50,257,21,1806s-1.6,41.8-34,50-539,130-539,130l-1-289,29-2202S14280.7,1857.69,14264,1840Z"/>
        <path id="cbot" class="cls-12" d="M14251,4371l-1574-60s-48.1-12.66-51-53,3-180,3-180l1621,25Z"/>
        <path id="cfront_inner" class="cls-13" d="M12619,1989l1612-69-39,2110-1633-25Z"/>
        <path class="cls-14" d="M12579,1917s-24.3-17.26-29,72-49,2028-49,2028,0.9,48.24,19,53,144,7,144,7-190.8-1867.38-58-2108c210.9-35.45,222.4-54.72,270-60C12686.8,1916.81,12579,1917,12579,1917Z"/>
        <path id="shadow" class="cls-15" d="M14272,1853s348.5,1404.07,132,2490c394.5-93.59,396-95,396-95s28.7-3.07,23-74-20-1760-20-1760l-51-266Z"/>
        <path id="ctop_inner" class="cls-16" d="M14108,2087l-1412,54,126,74,1224-35Z"/>
        <path id="cright_inner" class="cls-17" d="M14051,2178l1,1045,36,43,27-1172Z"/>
        <path id="cbot_inner" class="cls-16" d="M14051,3221l-1278,11-106,54,1424-18Z"/>
        <path id="cleft_inner" class="cls-18" d="M12776,3221l33-1009-102-68-48,1146Z"/>
        <path id="cscreen" class="cls-19" d="M12906.5,2211.63h1029a100.017,100.017,0,0,1,100,100v813.74a100.017,100.017,0,0,1-100,100h-1029a100.017,100.017,0,0,1-100-100V2311.63A100.017,100.017,0,0,1,12906.5,2211.63Z"/>
        <rect id="cscreen_copy" data-name="cscreen copy" class="cls-20" x="12822" y="2240" width="1184" height="968" rx="100" ry="100"/>
        <path class="cls-21" d="M13439,2267.53s224.9,578.8,18,938.54c460.2,1.55,460.1,1.93,460.1,1.93s67.6-20.15,69.1-69.59,14.9-793.73,2.8-810.95c-12-17.22-18.1-73.3-72.9-73.46C13861.4,2253.84,13439,2267.53,13439,2267.53Z"/>
        <path class="cls-22" d="M13074,2244s-244.7-48.18-237,182C12860.4,2253.69,13016.2,2257.27,13074,2244Z"/>
        <path id="cinput_bot" class="cls-23" d="M13770,3538h309v183h-314v-54h-475v-77h478Z"/>
        <path class="cls-24" d="M13591,3660l-52-11h-160l-21,12Z"/>
        <path class="cls-25" d="M14031,3702s-17.3-52.27-96-53-187,2-187,2l-82,12,154,3v39Z"/>
        <path id="Shape_19_copy" data-name="Shape 19 copy" class="cls-24" d="M14006,3701.75l-42-24.75h-129.1l-16.9,27Z"/>
        <path class="cls-24" d="M14006,3566s-92.8,17.08-136,15-47,1-47,1l1-15Z"/>
        <path class="cls-26" d="M13771,3538l56,29,215-1,38-26Z"/>
        <path id="shadow-2" data-name="shadow" class="cls-27" d="M14252,3831s-917.9,249.87-1622,244c1185.7,20.42,1623,26,1623,26Z"/>
        <path class="cls-28" d="M14042,3569v134l36,16,2-179Z"/>
        <path class="cls-26" d="M14041,3703l-218-1-58,17,313,1Z"/>
        <rect id="tomato_copy" data-name="tomato copy" class="cls-29" x="12649" y="3603" width="75" height="66" rx="33" ry="33"/>
        <path class="cls-30" d="M13821,3702v-39l-57,5v51Z"/>
        <path class="cls-25" d="M13877,3582s3.8,53.44-204,51-280-7-280-7l-7-14,435-5,5-27Z"/>
        <path class="cls-26" d="M13821,3663l-467-2-64,5,475,4Z"/>
        <path class="cls-30" d="M13354,3660l-1-49-63-20v75Z"/>
        <path class="cls-26" d="M13354,3613l464-5-49-17-478-2Z"/>
        <path class="cls-30" d="M13827,3567l-4,43-54-18,1-54Z"/>
        <rect id="tomato" class="cls-31" x="12643" y="3603" width="75" height="66" rx="33" ry="33"/>
        <path class="cls-32" d="M12705,3610s-20.4-19.42-51,1C12682.5,3610.86,12705,3610,12705,3610Z"/>
        <path class="cls-33" d="M12705,3609l-51,2s-6.8,7.2-8,12c66.8-.46,69,0,69,0S12713.5,3617.24,12705,3609Z"/>
        <path class="cls-34" d="M12711,3642l-67,2s4.9,13.07,10,16c30.3-.6,54,0,54,0s7.5-9.7,8-13C12713,3644.54,12714.8,3646.81,12711,3642Z"/>
        <path class="cls-35" d="M12707,3660h-53s11.2,8.74,15,9,20.7,0.67,23,0S12704.6,3663.62,12707,3660Z"/>
        <path class="cls-32" d="M12678,3607s9.5-15.09,15.5-17.19c1.9-2.26-2.2-4.91-3.4-3.43C12688.8,3587.85,12680.7,3598.56,12678,3607Z"/>
        <path id="kable02" class="cls-36" d="M12728,4103l834,17-49,78s-299.9-47.03-363-9-57.5,47.67,7,64"/>
      </g>
      <path id="mountian_front_right" class="cls-7" d="M19254,5096l-3114-912-496.8-196-977.4-444-260.6,240-662.4,202-860.7,457-1821.7,542-700.4,89Z"/>
      <path id="shadow_front_right" class="cls-8" d="M14650,3533l-106,212,93,4-1067,508,2035-295"/>
      <path id="mountian_front" class="cls-7" d="M13211,4368l-818.7-495L11313,4228Z"/>
      <path id="shadow_front" class="cls-8" d="M12398,3872l-577,221,613,51-52-168,69-2Z"/>
      <text id="Snackntosh_Plus" data-name="Snackntosh Plus" class="cls-37" transform="translate(12766.651 3648.955) scale(1 1.229)">Snackntosh Plus</text>
    </g>
    <g id="Wiese">
      <path id="wiese_back" class="cls-38" d="M23405,3533s-373.2-168.61-489-169-1792.3,636.16-2066,642-1932.1-268.31-2204-262-1365.9,440.78-1595,441-1297.9-385.62-1484-393-2066.5,449.41-2276,456-2827.5-427.59-3079-400c-251.52,27.59-675.39,110.33-947,110s-1405.35-445.58-1570-446-649.39,162.39-880,175-1235.97-385.97-1442-386-1005.27,283.74-1245,299-651.16-156.87-820-143-776.05,105.26-950,105S873.981,3124.9,697,3125-359,3467-359,3467L-13,7148l23455-13Z"/>
      <path id="wiese_back_copy" data-name="wiese_back copy" class="cls-39" d="M23405,3715s-373.2-168.61-489-169-1792.3,636.16-2066,642-1932.1-268.31-2204-262-1365.9,440.78-1595,441-1297.9-385.62-1484-393-2066.5,449.41-2276,456-2827.5-427.59-3079-400c-251.52,27.59-675.39,110.33-947,110s-1405.35-445.58-1570-446-649.39,162.39-880,175-1235.97-385.97-1442-386-1005.27,283.74-1245,299-651.16-156.87-820-143-776.05,105.26-950,105S873.981,3306.9,697,3307-359,3649-359,3649L-13,7330l23455-13Z"/>
      <path id="wiese_back_copy_2" data-name="wiese_back copy 2" class="cls-40" d="M23405,3895s-373.2-168.61-489-169-1792.3,636.16-2066,642-1932.1-268.31-2204-262-1365.9,440.78-1595,441-1297.9-385.62-1484-393-2066.5,449.41-2276,456-2827.5-427.59-3079-400c-251.52,27.59-675.39,110.33-947,110s-1405.35-445.58-1570-446-649.39,162.39-880,175-1235.97-385.97-1442-386-1005.27,283.74-1245,299-651.16-156.87-820-143-776.05,105.26-950,105S873.981,3486.9,697,3487-359,3829-359,3829L-13,7510l23455-13Z"/>
      <path id="kable03" class="cls-41" d="M13098,4213s135,47.23,133,187"/>
      <path id="wiese_mitte" class="cls-42" d="M23424,4155s-698.8,267.98-1353,248-2217.2-461.93-2839-445-2406.1,233.83-2771,241-703.2-152.44-984-102-3204.1,414.24-3485,429c-390.6-27.8-3099.28-451.46-3483-451s-2122.57-211.77-2454-169-1597.97,294.88-2358,218-2081.19-210.35-2343-191S-43,4106-43,4106l-65,3155,23588-15Z"/>
      <path id="wiese_mitte_copy" data-name="wiese_mitte copy" class="cls-43" d="M23431,4586s-698.8,267.98-1353,248-2217.2-461.93-2839-445-2406.1,233.83-2771,241-703.2-152.44-984-102-3204.1,414.24-3485,429c-390.6-27.8-3099.28-451.46-3483-451s-2122.57-211.77-2454-169-1597.97,294.88-2358,218-2081.19-210.35-2343-191S-36,4537-36,4537l-65,3155,23588-15Z"/>
      <path id="wiese_mitte_copy_2" data-name="wiese_mitte copy 2" class="cls-44" d="M23431,4976s-698.8,267.98-1353,248-2217.2-461.93-2839-445-2406.1,233.83-2771,241-703.2-152.44-984-102-3204.1,414.24-3485,429c-390.6-27.8-3099.28-451.46-3483-451s-2122.57-211.77-2454-169-1597.97,294.88-2358,218-2081.19-210.35-2343-191S-36,4927-36,4927l-65,3155,23588-15Z"/>
      <path class="cls-45" d="M13023,5673s770.2-653.29,428-916c-22.4,4.18,37,179,37,179s-84.1,284.78-194,368-305,264-305,264l1,73Z"/>
      <path class="cls-45" d="M13007.6,5642.01l50.4,64.83s-204.9,68.56-253.9,34.84-4.6-103.68-5.6-111.01S13007.6,5642.01,13007.6,5642.01Z"/>
      <path class="cls-46" d="M13226,4384s-201,149.27,4,232,336.5,230.52,296,349-112.6,267.16-308,447-225,217-225,217l-71-98s188.7-110.67,262-174,564.7-494.04,30-689C13118.9,4602.03,12965.2,4469.12,13226,4384Z"/>
      <path class="cls-47" d="M12910.1,5441l-158.4,71.34s-142,147.86,44.7,224.66c179.4-69.26,208.5-88.04,208.5-88.04S13081.5,5461.88,12910.1,5441Z"/>
      <path class="cls-48" d="M12851,5705"/>
      <ellipse class="cls-49" cx="12786.5" cy="5618.5" rx="92.5" ry="112.5"/>
      <ellipse id="Ellipse_2_copy" data-name="Ellipse 2 copy" class="cls-50" cx="12788" cy="5621" rx="86" ry="110"/>
      <ellipse class="cls-51" cx="12833.5" cy="5629" rx="15.5" ry="10"/>
      <ellipse id="Ellipse_3_copy" data-name="Ellipse 3 copy" class="cls-51" cx="12770.5" cy="5606" rx="15.5" ry="11"/>
      <path class="cls-52" d="M12768.9,5616.09l-49.8,20.91s-25-5.5-5.9-21.82c41.9-15.74,45.7-18.18,45.7-18.18S12770.4,5597.7,12768.9,5616.09Z"/>
      <path id="Shape_29_copy" data-name="Shape 29 copy" class="cls-45" d="M12877.5,5738.31l-34.7,41.97s-24.1-1.53-14.1-29.37c30.1-32.7,32.5-37.12,32.5-37.12S12871.4,5711.92,12877.5,5738.31Z"/>
      <path class="cls-52" d="M12820,5622l-50,28s-11.2,14.94,9,16c50.4-29.63,50-30,50-30S12836.8,5623.98,12820,5622Z"/>
      <path id="Shape_30_copy" data-name="Shape 30 copy" class="cls-45" d="M12898.6,5708l-34.5,54.73s-7.7,29.2,6.2,31.27c34.7-57.91,34.5-58.64,34.5-58.64S12910.1,5711.88,12898.6,5708Z"/>
      <path class="cls-53" d="M12989,5484.92L12856.8,5554s-13.1-33.91-78.8-42.29c133.7-53.7,133.6-53.58,133.6-53.58S12981,5466.34,12989,5484.92Z"/>
      <path id="wiese_front" class="cls-54" d="M23380,4533s-1066.3,295.29-1582,233-3195.5-399.12-3581-372-1111,196.49-1549,196-805.1-213.45-1364-56-2656.3,1482.98-3010,1563-683.3,139.99-1246-72S7361.27,4305.56,6761,4314s-1975.68,226.98-2833,226-2370.02-317.47-2851-235S-83,4497-83,4497l-60,3203,23658-284Z"/>
      <path id="wiese_front_copy" data-name="wiese_front copy" class="cls-55" d="M23307,4874.86s-1066.3,323.55-1582,255.3-3195.5-437.33-3581-407.61-1111,215.3-1549,214.76-805.1-233.88-1364-61.36-2656.3,1624.93-3010,1712.61-683.3,153.39-1246-78.89S7288.27,4625.65,6688,4634.89,4712.32,4883.6,3855,4882.53s-2370.02-347.86-2851-257.5S-156,4835.41-156,4835.41L-216,8345l23658-311.18Z"/>
      <path id="wiese_front_copy_2" data-name="wiese_front copy 2" class="cls-56" d="M23321,5594.86s-1066.3,323.55-1582,255.3-3195.5-437.33-3581-407.61-1111,215.3-1549,214.76-805.1-233.88-1364-61.36-2656.3,1624.93-3010,1712.61-683.3,153.39-1246-78.89S7302.27,5345.65,6702,5354.89,4726.32,5603.6,3869,5602.53s-2370.02-347.86-2851-257.5S-142,5555.41-142,5555.41L-202,9065l23658-311.18Z"/>
      <path id="wiese_front_copy_3" data-name="wiese_front copy 3" class="cls-57" d="M23307,6333.86s-1066.3,323.55-1582,255.3-3195.5-437.33-3581-407.61-1111,215.3-1549,214.76-805.1-233.88-1364-61.36-2656.3,1624.93-3010,1712.61-683.3,153.39-1246-78.89S7288.27,6084.64,6688,6093.89,4712.32,6342.6,3855,6341.53s-2370.02-347.86-2851-257.5S-156,6294.41-156,6294.41L-216,9804l23658-311.18Z"/>
      <path id="wiese_front_copy_4" data-name="wiese_front copy 4" class="cls-58" d="M23345,6658.86s-1066.3,323.55-1582,255.3-3195.5-437.33-3581-407.61-1111,215.3-1549,214.76-805.1-233.88-1364-61.36-2656.3,1624.93-3010,1712.61-683.3,153.39-1246-78.89S7326.27,6409.64,6726,6418.89,4750.32,6667.6,3893,6666.53s-2370.02-347.86-2851-257.5S-118,6619.41-118,6619.41L-178,10129l23658-311.18Z"/>
    </g>
    <g id="Character">
      <path class="cls-59" d="M9032,5194l-37-41-45-14-20-37-11-33-31-10,1,100,70,66Z"/>
      <path class="cls-60" d="M8881,5056l-363,1-69,45-59,169,686,3-42-81-82-14-39-65-2-46Z"/>
      <path class="cls-61" d="M9075,5273l-165,224-409,1-109-228Z"/>
      <path class="cls-62" d="M8685,5511"/>
      <path id="arm" class="cls-63" d="M8399,2787s21.29-6.47,55,24,258,264,258,264l110,2s-16.2,136.42,1,162c-167.7-5.55-168-6-168-6s-31.36-1.02-62-28-176-161-176-161Z"/>
      <path id="legs" class="cls-64" d="M8455.48,3681l266.67,594s7.74,15.77,7.82,86,0,544,0,544l-191.46,2,4.89-512s-0.63-13.46-12.7-31-199.27-421-199.27-421l-152.39-3-2.93,1177H7970V3687Z"/>
      <path id="light" class="cls-65" d="M8177,3940s-46.38,47.46-49,373-4,803-4,803h51Z"/>
      <path id="shadow-3" data-name="shadow" class="cls-61" d="M8889,5054s-41.99,110.46-150,112-206,9-206,9l1-118Z"/>
      <path class="cls-66" d="M8920,5070l-12-32-20-16-367-4-37,28-35,57,56,16,244-5,134-21Z"/>
      <path class="cls-66" d="M8885,5095l-7,41,20,57,74,37,11,43-158-2,12-68-5-55-8-42Z"/>
      <path class="cls-67" d="M8508,5122l-17,100,195,50-295-3,58-167Z"/>
      <path id="shoe" class="cls-64" d="M8536,4901l-4,156h361s3.72-78.46-55-92c-76.23-29.51-117-60-117-60Z"/>
      <path id="shadow-4" data-name="shadow" class="cls-63" d="M8122,3879l203,24,6,41,213,443-12,668,134,1-8-156V4299l-258-616-176,3-94,7Z"/>
      <path id="shadow2" class="cls-61" d="M8330,5270s-75.49,117.1-166,117-182-16-182-16l-6-117Z"/>
      <path id="shoe_copy_2" data-name="shoe copy 2" class="cls-64" d="M7976,5114l-4,156h361s3.72-78.46-55-92c-76.23-29.51-117-60-117-60Z"/>
      <path id="body_main" class="cls-64" d="M8450,3008l5,688-484-6V2733h464Z"/>
      <path id="shadow-5" data-name="shadow" class="cls-63" d="M8201,2740H8023l-56,2353,94,7,71-1405,97-6s-64.4-56.31-73-148,119.13-619.09,183-654,27-126,27-126Z"/>
      <path class="cls-65" d="M8434,2734l-179,2s99.13,7.2,107,26,30.04,73.79-29,125c-54.85,92.51-61.43,778.66,3,787s64,8,64,8l24,54s231.69,516.46,232,567,1,597,1,597,42.65,22.73,63,4,8-593,8-593-14.51-53.07-28-78-226-556-226-556l-35-612,57-94s146.63,144.74,179,145,139,6,139,6-5.39-16.81,11-40c-121.72-4.85-122-5-122-5S8467.43,2793.09,8434,2734Z"/>
      <path class="cls-63" d="M8498,2978l-138-129s-77.42,80.28-74,201,154,468.44,161,243,11-219,11-219Z"/>
      <path class="cls-68" d="M9065,2976"/>
      <path id="neck" class="cls-69" d="M8387,2654s-9.17,16.16-9,21,5.55,4.42,6,9-5.85,2.35-6,9,4.46,1.29,5,7-4.79,5.33-5,11,4.1,2.72,4,9-6.13,8.32-6,13,3,6,3,6H8082s-2.93-15.08-3-11,3.25-8.91,3-5-2.91-19.75-3-14,2.56-11.81,3-7-3.14-17.03-3-12,3.69-13.24,4-8-2.24-17.23-2-11-6-18-6-18Z"/>
      <path id="neck_copy" data-name="neck copy" class="cls-63" d="M8244,2654s-4.53,16.16-4.44,21,2.74,4.42,2.96,9-2.89,2.35-2.96,9,2.2,1.29,2.47,7-2.37,5.33-2.47,11,2.02,2.72,1.97,9-3.02,8.32-2.96,13,1.48,6,1.48,6h-146.6s-1.44-15.08-1.48-11,1.61-8.91,1.48-5-1.43-19.75-1.48-14,1.27-11.81,1.48-7-1.55-17.03-1.48-12,1.83-13.24,1.98-8-1.1-17.23-.99-11-2.96-18-2.96-18Z"/>
      <path id="neck_high" class="cls-70" d="M8379,2690a47.685,47.685,0,0,1-10,4c-5.49,1.45-8,1-8,1l-4-2s20.67-8.58,21-15,1-1,1-1,4.98,2.54,5,5S8384.09,2686.89,8379,2690Z"/>
      <path id="neck_high_copy" data-name="neck_high copy" class="cls-71" d="M8084.19,2673.99a50.862,50.862,0,0,0,10.37,3.96c5.68,1.44,8.29.99,8.29,0.99l4.15-1.98s-21.44-8.48-21.78-14.84-1.03-.99-1.03-0.99-5.17,2.51-5.19,4.95S8078.91,2670.92,8084.19,2673.99Z"/>
      <path id="neck_high_copy_2" data-name="neck_high copy 2" class="cls-72" d="M8083.18,2695.99a51.1,51.1,0,0,0,10.38,3.96c5.68,1.43,8.29.99,8.29,0.99l4.15-1.98s-21.44-8.48-21.78-14.84-1.04-.99-1.04-0.99-5.16,2.51-5.18,4.95S8077.91,2692.92,8083.18,2695.99Z"/>
      <path id="neck_high_copy_3" data-name="neck_high copy 3" class="cls-73" d="M8083.18,2718.99a51.1,51.1,0,0,0,10.38,3.96c5.68,1.43,8.29.99,8.29,0.99l4.15-1.98s-21.44-8.48-21.78-14.84-1.04-.99-1.04-0.99-5.16,2.51-5.18,4.95S8077.91,2715.92,8083.18,2718.99Z"/>
      <path id="neck_high_copy_6" data-name="neck_high copy 6" class="cls-74" d="M8083.18,2708.99a51.1,51.1,0,0,0,10.38,3.96c5.68,1.43,8.29.99,8.29,0.99l4.15-1.98s-21.44-8.48-21.78-14.84-1.04-.99-1.04-0.99-5.16,2.51-5.18,4.95S8077.91,2705.92,8083.18,2708.99Z"/>
      <path id="neck_high_copy_7" data-name="neck_high copy 7" class="cls-75" d="M8083.18,2685.99a51.1,51.1,0,0,0,10.38,3.96c5.68,1.44,8.29.99,8.29,0.99l4.15-1.98s-21.44-8.48-21.78-14.84-1.04-.99-1.04-0.99-5.16,2.51-5.18,4.95S8077.91,2682.92,8083.18,2685.99Z"/>
      <path id="shad_ring" data-name="shad ring" class="cls-76" d="M8362,2734s-199.39,7.5-266-10c0.66-7.01,0-7,0-7s95.17,21.26,264,13c2.68,4.08,3,4,3,4"/>
      <path id="shad_ring_copy_3" data-name="shad ring copy 3" class="cls-77" d="M8362,2723s-199.39,7.5-266-10c0.66-7.01,0-7,0-7s95.17,21.26,264,13c2.68,4.08,3,4,3,4"/>
      <path id="shad_ring_copy_4" data-name="shad ring copy 4" class="cls-78" d="M8362,2701s-199.39,7.5-266-10c0.66-7.01,0-7,0-7s95.17,21.26,264,13c2.68,4.08,3,4,3,4"/>
      <path id="shad_ring_copy" data-name="shad ring copy" class="cls-79" d="M8362,2711s-199.39,7.5-266-10c0.66-7.01,0-7,0-7s95.17,21.26,264,13c2.68,4.08,3,4,3,4"/>
      <path id="shad_ring_copy_2" data-name="shad ring copy 2" class="cls-80" d="M8361.8,2694.88s-199.5,3.16-265.72-15.78c0.81-7,.15-7,0.15-7s94.69,23.33,263.66,18.74c2.59,4.13,2.91,4.06,2.91,4.06"/>
      <path id="neck_high-2" data-name="neck_high" class="cls-81" d="M8379,2710a47.685,47.685,0,0,1-10,4c-5.49,1.45-8,1-8,1l-4-2s20.67-8.58,21-15,1-1,1-1,4.98,2.54,5,5S8384.09,2706.89,8379,2710Z"/>
      <path id="neck_high_copy_4" data-name="neck_high copy 4" class="cls-82" d="M8379,2698a47.685,47.685,0,0,1-10,4c-5.49,1.45-8,1-8,1l-4-2s20.67-8.58,21-15,1-1,1-1,4.98,2.54,5,5S8384.09,2694.89,8379,2698Z"/>
      <path id="neck_high-3" data-name="neck_high" class="cls-83" d="M8379,2730a47.685,47.685,0,0,1-10,4c-5.49,1.45-8,1-8,1l-4-2s20.67-8.58,21-15,1-1,1-1,4.98,2.54,5,5S8384.09,2726.89,8379,2730Z"/>
      <path id="neck_high_copy_5" data-name="neck_high copy 5" class="cls-84" d="M8379,2720a47.685,47.685,0,0,1-10,4c-5.49,1.45-8,1-8,1l-4-2s20.67-8.58,21-15,1-1,1-1,4.98,2.54,5,5S8384.09,2716.89,8379,2720Z"/>
      <g id="Helmet">
        <path id="windshield-fill" class="cls-85" d="M8464.5,2254.39s51.49,70.81,50.21,160.11-96.01,203.45-117.16,216.33-121.08,57.36-177.67,53.78-134.24-22.71-162.23-42.78-14.16-316.56-14.16-316.56l182.82-111.22Z"/>
        <path id="fill_helmet_dartk" class="cls-86" d="M8460,2582s-70.36,61.64-151,61-30-69-30-69S8470.2,2549.67,8460,2582Z"/>
        <path id="skin" class="cls-87" d="M8106.63,2198.62h189.74a100,100,0,0,1,100,100v254.06a100,100,0,0,1-100,100H8106.63a100,100,0,0,1-100-100V2298.62A100,100,0,0,1,8106.63,2198.62Z"/>
        <path id="skin_high" class="cls-88" d="M8362.93,2297.66s-5.5,202.24-7.72,241.82-77,102.98-96.47,111.91,48.88,12.86,48.88,12.86l23.15-25.72s60.27-43.55,63.03-92.61,4.74-203.63,5.15-226.39-1.29-33.45-1.29-33.45l-23.15-1.28Z"/>
        <path id="dark_skin" class="cls-89" d="M8314.05,2373.55s-47.67,241.92-133.77,262.41c-39.04-3.18-78.47-15.44-78.47-15.44l3.86-227.67,149.21-69.46Z"/>
        <path id="glass_light3" class="cls-90" d="M8431.18,2567.78h27.01a4.5,4.5,0,0,1,4.5,4.5v2.58a4.5,4.5,0,0,1-4.5,4.5h-27.01a4.5,4.5,0,0,1-4.5-4.5v-2.58A4.5,4.5,0,0,1,8431.18,2567.78Z"/>
        <path id="glass_light2" class="cls-90" d="M8449.68,2554.92h19.73a3,3,0,0,1,3,3v1.72a3,3,0,0,1-3,3h-19.73a3,3,0,0,1-2.99-3v-1.72A2.994,2.994,0,0,1,8449.68,2554.92Z"/>
        <path id="glass_light" class="cls-90" d="M8480.41,2361.98h26.16a3,3,0,0,1,3,3v1.71a3,3,0,0,1-3,3h-26.16a3,3,0,0,1-3-3v-1.71A3,3,0,0,1,8480.41,2361.98Z"/>
        <path class="cls-91" d="M8122,2604l118-107-4-5s-36.48,7.54-37-59c-0.23-44.02,9.69-72.47,74-73-0.28,56.09,0,56,0,56l14,1s24.33-1.1,33-60c3.89-38,6.78-61.39,25-62s52,0,52,0,2.89-3.17,2,47c17.17-.13,77-4,77-4l-25-43,35-1s-9.88-22.15-18-34c-36.08-.2-225,4-225,4l-174,133Z"/>
        <path class="cls-92" d="M8472.27,2278.37s-170.02-8-173.65,36.01,4.96,68.51-5.15,77.18-18.01,7.72-18.01,7.72v-51.45s-76.77-26.75-99.04,27.01-24.88,127.74-38.59,164.64-28.3,45.02-28.3,45.02l-10.29-268.83,209.67-84.9,129.91,6.44Z"/>
        <circle class="cls-93" cx="8369.36" cy="2392.86" r="20.58"/>
        <circle id="Ellipse_4_copy" data-name="Ellipse 4 copy" class="cls-94" cx="8377.735" cy="2385.765" r="7.075"/>
        <path class="cls-95" d="M8434.96,2341.4s52.65,155.98-39.87,277.83c48.44-25.07,43.79-9.32,60.45-30.87s40.34-67.8,45.02-86.18,15.64-68.22,11.58-110.62-25.73-96.47-25.73-96.47H8450.4l25.72,43.73Z"/>
        <path id="fill" class="cls-69" d="M8472.27,2260.48s-341.73-15.4-341.73,190.32v172.32s239.75,71.96,340.52-56.59c-72,108.79-186.8,142.69-241.51,142.74s-144.63-39.81-190.79-83.58-72.87-107.3-76.07-146.6-17.79-127.85,25.36-199.32,88.85-118.07,131.62-133.74,83.97-28.73,130.41-27,105.26,24.29,130.41,42.43S8437.84,2212.59,8472.27,2260.48Z"/>
        <path id="highlight" class="cls-65" d="M8289.61,2139.45s-114.81,88.17-57.88,104.19,92.61,5.14,92.61,5.14,87.67-13.59,109.34-7.72S8388.21,2163.62,8289.61,2139.45Z"/>
        <path id="Rounded_Rectangle_4" data-name="Rounded Rectangle 4" class="cls-96" d="M8019.63,2407h2.29a4,4,0,0,1,4,4v64.03a4,4,0,0,1-4,4h-2.29a4,4,0,0,1-4-4V2411A4,4,0,0,1,8019.63,2407Z"/>
        <path id="Rounded_Rectangle_4_copy" data-name="Rounded Rectangle 4 copy" class="cls-96" d="M8006.77,2407h2.29a4,4,0,0,1,4,4v64.03a4,4,0,0,1-4,4h-2.29a4,4,0,0,1-4-4V2411A4,4,0,0,1,8006.77,2407Z"/>
        <path id="Rounded_Rectangle_4_copy_2" data-name="Rounded Rectangle 4 copy 2" class="cls-96" d="M7993.9,2407h2.29a4,4,0,0,1,4,4v64.03a4,4,0,0,1-4,4h-2.29a4,4,0,0,1-4-4V2411A4,4,0,0,1,7993.9,2407Z"/>
        <path class="cls-97" d="M8449.11,2593.51s-102.84,94.4-344.73,29.58c4.32-204.64,3.86-204.52,3.86-204.52s15.15-160.46,360.17-160.78c-7.53-13.23-7.72-14.15-7.72-14.15s-378.74.12-380.74,176.22-1.29,222.53-1.29,222.53,182.51,61.76,342.15-14.15c28.03-33.9,28.3-33.45,28.3-33.45"/>
        <path class="cls-98" d="M8579.03,2359.4"/>
        <path class="cls-99" d="M8224.01,2122.93s-225.08,267-160.4,518.17c-47.75-66.74-45.96-52.45-56.99-86.15s-44.46-121.25-27.44-194.15,33.19-127.13,84.43-169.73S8148.07,2119.99,8224.01,2122.93Z"/>
        <path id="antenna_copy" data-name="antenna copy" class="cls-100" d="M8102.44,2413.43h12.89a22.5,22.5,0,0,1,22.5,22.5v50.18a22.5,22.5,0,0,1-22.5,22.5h-12.89a22.493,22.493,0,0,1-22.49-22.5v-50.18A22.493,22.493,0,0,1,8102.44,2413.43Z"/>
        <path id="antenna" class="cls-101" d="M8106.45,2413.5a28.948,28.948,0,0,1,27.25,30.55l-2.13,37.24a28.937,28.937,0,1,1-57.78-3.3l2.12-37.24A28.939,28.939,0,0,1,8106.45,2413.5Z"/>
        <path id="Rounded_Rectangle_2_copy" data-name="Rounded Rectangle 2 copy" class="cls-102" d="M8107.07,2323.5a3.213,3.213,0,0,1,3,3.42l-6.24,92.41a3.213,3.213,0,1,1-6.41-.44l6.23-92.4A3.212,3.212,0,0,1,8107.07,2323.5Z"/>
        <path id="Rounded_Rectangle_2" data-name="Rounded Rectangle 2" class="cls-48" d="M8103.76,2323.54a3.215,3.215,0,0,1,2.95,3.46l-7.25,92.33a3.215,3.215,0,0,1-6.41-.51l7.25-92.33A3.215,3.215,0,0,1,8103.76,2323.54Z"/>
      </g>
      <path class="cls-103" d="M8079,3562H7731s-83.26-20.58-89-66-54.29-713.62-57-757,27.43-92.44,105-95,390-7,390-7Z"/>
      <path id="back1_copy" data-name="back1 copy" class="cls-104" d="M8224,2741v720s-31.9,103-120,103-107-67.06-107-98-52-672.37-52-730,48.04-99,121-99S8224,2630.67,8224,2741Z"/>
      <path class="cls-105" d="M8094,3529h-17s-14-6.53-14-32,12.41-30,19-30a73.685,73.685,0,0,0,12-1v63Z"/>
      <ellipse id="Ellipse_6_copy" data-name="Ellipse 6 copy" class="cls-106" cx="8106.5" cy="3361.5" rx="19.5" ry="28.5"/>
      <ellipse class="cls-107" cx="8112.5" cy="3361.5" rx="19.5" ry="28.5"/>
      <path class="cls-48" d="M8117,3347c-1.94,3.07,3,5,3,5s10.26,25-8,25-6-24-6-24,1.01-1.36,1-5-1.64-1.33-3-1-17.86,35,8,35,13-31,13-31S8119.92,3342.39,8117,3347Z"/>
      <rect id="Rounded_Rectangle_8" data-name="Rounded Rectangle 8" x="8110" y="3339" width="4" height="23" rx="2" ry="2"/>
      <path id="Rounded_Rectangle_7" data-name="Rounded Rectangle 7" class="cls-96" d="M7711.18,3473.98l213.52-14.29a5,5,0,0,1,5.33,4.65l0.13,2a5,5,0,0,1-4.65,5.32l-213.52,14.3a5.011,5.011,0,0,1-5.33-4.66l-0.13-1.99A5,5,0,0,1,7711.18,3473.98Z"/>
      <path id="Rounded_Rectangle_7_copy" data-name="Rounded Rectangle 7 copy" class="cls-96" d="M7709.85,3454.03l213.52-14.3a5,5,0,0,1,5.32,4.65l0.14,2a5,5,0,0,1-4.66,5.32L7710.65,3466a4.988,4.988,0,0,1-5.32-4.65l-0.14-2A5,5,0,0,1,7709.85,3454.03Z"/>
      <path id="Rounded_Rectangle_7_copy_2" data-name="Rounded Rectangle 7 copy 2" class="cls-96" d="M7708.51,3434.07l213.52-14.3a5.011,5.011,0,0,1,5.33,4.66l0.13,1.99a5.011,5.011,0,0,1-4.66,5.33l-213.52,14.3a5.008,5.008,0,0,1-5.32-4.66l-0.13-1.99A5,5,0,0,1,7708.51,3434.07Z"/>
      <path id="Rounded_Rectangle_7_copy_3" data-name="Rounded Rectangle 7 copy 3" class="cls-96" d="M7707.17,3414.12l213.53-14.3a4.994,4.994,0,0,1,5.32,4.65l0.13,2a4.994,4.994,0,0,1-4.65,5.32l-213.52,14.3a5,5,0,0,1-5.33-4.65l-0.13-2A5,5,0,0,1,7707.17,3414.12Z"/>
      <path id="Rounded_Rectangle_7_copy_4" data-name="Rounded Rectangle 7 copy 4" class="cls-96" d="M7705.84,3394.16l213.52-14.3a5,5,0,0,1,5.32,4.66l0.14,1.99a5.011,5.011,0,0,1-4.66,5.33l-213.52,14.3a5,5,0,0,1-5.32-4.66l-0.14-1.99A5.011,5.011,0,0,1,7705.84,3394.16Z"/>
      <path id="Rounded_Rectangle_7_copy_5" data-name="Rounded Rectangle 7 copy 5" class="cls-96" d="M7704.5,3374.21l213.52-14.3a5,5,0,0,1,5.33,4.65l0.13,2a5,5,0,0,1-4.65,5.32l-213.53,14.3a4.994,4.994,0,0,1-5.32-4.65l-0.13-2A4.994,4.994,0,0,1,7704.5,3374.21Z"/>
      <path id="Rounded_Rectangle_7_copy_6" data-name="Rounded Rectangle 7 copy 6" class="cls-96" d="M7703.17,3354.25l213.52-14.3a5,5,0,0,1,5.32,4.66l0.13,1.99a5,5,0,0,1-4.65,5.33l-213.52,14.3a5.011,5.011,0,0,1-5.33-4.66l-0.13-1.99A5.011,5.011,0,0,1,7703.17,3354.25Z"/>
      <path id="Rounded_Rectangle_7_copy_7" data-name="Rounded Rectangle 7 copy 7" class="cls-96" d="M7701.83,3334.3l213.52-14.3a4.988,4.988,0,0,1,5.32,4.65l0.14,2a5,5,0,0,1-4.66,5.32l-213.52,14.3a5,5,0,0,1-5.32-4.65l-0.14-2A5,5,0,0,1,7701.83,3334.3Z"/>
      <path id="Rounded_Rectangle_7_copy_8" data-name="Rounded Rectangle 7 copy 8" class="cls-96" d="M7700.49,3314.34l213.52-14.3a5.011,5.011,0,0,1,5.33,4.66l0.13,1.99a5,5,0,0,1-4.65,5.33l-213.53,14.29a4.993,4.993,0,0,1-5.32-4.65l-0.13-2A5,5,0,0,1,7700.49,3314.34Z"/>
      <ellipse class="cls-108" cx="8094.5" cy="3497.5" rx="20.5" ry="31.5"/>
      <ellipse id="Ellipse_5_copy" data-name="Ellipse 5 copy" class="cls-109" cx="8095.5" cy="3497" rx="17.5" ry="28"/>
      <path id="shadow-6" data-name="shadow" class="cls-61" d="M9393,5177s347.07,57.51,355,126,4.28,135.47-31,139-366.88,48.65-471,44-288.95-39.62-364-51-267-117-267-117l246,24,120,36,208,24,321-10,172-27s26.27-42.84-41-57-276-49-276-49S9331.9,5177.64,9393,5177Z"/>
      <path class="cls-103" d="M9026,3231v460c0,82.99-25.15,977.85,268,1271s-182.97,273.31,292,325c174.31,24.77,147.32,99.29,59,99s-486.41,59.08-682-7-348.83,31.75-420-149-304.44-1720-378-1720-69,3-69,3-21.22-13.77-5-32c22.89,0.69,80-2,80-2s37.12-41.16,95,228,267.97,1449.29,303,1510,27.58,107.76,252,107c94.13,12.43,121.08,21.23,148,30s129.16,50.49,401,31c271.84-22.29,219.81-15.87,272-22s57.9-41.21-60-55-214.5-20.18-249-55,48.23-71.04,36-122-56.32-113.02-94-150-130.21-122.17-194-408-92.98-630.63-90-707,1.86-618.33,4-643S9026,3231,9026,3231Z"/>
      <path id="steckerbot" class="cls-103" d="M9038.17,3002.83v-91.15s36.83,2.68,36.83-17.36-2.17-93.32-2.17-93.32H8932v102s8.34,9.9,26,10.85c3.92,20.14,13,91.15,13,91.15Z"/>
      <path class="cls-110" d="M9071,2823l-58,19,1,157h21l-3-96s42.12,8.08,41-10S9071,2823,9071,2823Z"/>
      <ellipse id="steckertop_copy" data-name="steckertop copy" class="cls-111" cx="9003" cy="2807" rx="72" ry="25"/>
      <ellipse id="steckertop" class="cls-112" cx="9005.5" cy="2806.5" rx="59.5" ry="20.5"/>
      <circle id="steckeerlocjh" class="cls-113" cx="9027.5" cy="2806.5" r="10.5"/>
      <circle id="steckeerlocjh_copy" data-name="steckeerlocjh copy" class="cls-114" cx="8978.5" cy="2806.5" r="10.5"/>
      <path class="cls-115" d="M9038,2806.96s-9.33,11.32-21,0c0.43-11.46,8.18-11.15,10.5-10.9S9038,2796.62,9038,2806.96Z"/>
      <path id="Shape_50_copy" data-name="Shape 50 copy" class="cls-115" d="M8989,2806.96s-9.33,11.32-21,0c0.44-11.46,8.18-11.15,10.5-10.9S8989,2796.62,8989,2806.96Z"/>
      <path id="hand" class="cls-116" d="M8819,3096l97-7s26.91-6.64,24-24-13.93-62,20-62h109s43.65,2.03,45,34,1,134,1,134-24.31,55-70,55H8823S8802.07,3173.43,8819,3096Z"/>
      <path class="cls-117" d="M8950,3031s125.35-16.45,120,38-30,156-30,156,47.46,5.57,73-54c1.25-96.02,0-138,0-138s-11.53-28.43-34-29S8968.99,2998.31,8950,3031Z"/>
    </g>
    <g id="Stars">
      <path id="star_outer" class="cls-118" d="M9864.5,1691a54.5,54.5,0,1,1-54.5,54.5A54.5,54.5,0,0,1,9864.5,1691Zm4.5-13a68,68,0,1,1-68,68A67.994,67.994,0,0,1,9869,1678Z"/>
      <circle id="star_inner" class="cls-119" cx="9869" cy="1747" r="44"/>
      <path id="star_outer_copy" data-name="star_outer copy" class="cls-118" d="M16918.4,151.945a50.1,50.1,0,1,1-50.1,50.1A50.145,50.145,0,0,1,16918.4,151.945Zm4.1-11.945a62.5,62.5,0,1,1-62.5,62.5A62.511,62.511,0,0,1,16922.5,140Z"/>
      <path id="star_inner_copy" data-name="star_inner copy" class="cls-90" d="M16922.5,162.983a40.448,40.448,0,1,1-40.4,40.448A40.432,40.432,0,0,1,16922.5,162.983Z"/>
      <path id="star_outer_copy_11" data-name="star_outer copy 11" class="cls-118" d="M13551.6,1527.85a50.1,50.1,0,1,1-50.1,50.1A50.087,50.087,0,0,1,13551.6,1527.85Zm-4.1-12.85a62.5,62.5,0,1,1-62.5,62.5A62.51,62.51,0,0,1,13547.5,1515Z"/>
      <path id="star_inner_copy_11" data-name="star_inner copy 11" class="cls-90" d="M13547.5,1536.12a40.45,40.45,0,1,1-40.4,40.45A40.433,40.433,0,0,1,13547.5,1536.12Z"/>
      <path id="star_outer_copy_2" data-name="star_outer copy 2" class="cls-118" d="M8840.02,1357.73a24.05,24.05,0,1,1-24.05,24.05A24.045,24.045,0,0,1,8840.02,1357.73ZM8842,1352a30,30,0,1,1-30,30A30,30,0,0,1,8842,1352Z"/>
      <path id="star_inner_copy_2" data-name="star_inner copy 2" class="cls-90" d="M8842,1363.03a19.415,19.415,0,1,1-19.4,19.42A19.4,19.4,0,0,1,8842,1363.03Z"/>
      <path id="star_outer_copy_3" data-name="star_outer copy 3" class="cls-118" d="M8382.02,1662.73a24.05,24.05,0,1,1-24.05,24.05A24.045,24.045,0,0,1,8382.02,1662.73ZM8384,1657a30,30,0,1,1-30,30A30,30,0,0,1,8384,1657Z"/>
      <path id="star_inner_copy_3" data-name="star_inner copy 3" class="cls-90" d="M8384,1668.03a19.415,19.415,0,1,1-19.4,19.42A19.4,19.4,0,0,1,8384,1668.03Z"/>
      <path id="star_outer_copy_4" data-name="star_outer copy 4" class="cls-118" d="M19884.6,1567.35a89.835,89.835,0,1,1-89.8,89.83A89.813,89.813,0,0,1,19884.6,1567.35Zm7.4-21.35a112,112,0,1,1-112,112A111.969,111.969,0,0,1,19892,1546Z"/>
      <circle id="star_inner_copy_4" data-name="star_inner copy 4" class="cls-119" cx="19892" cy="1659.69" r="72.4"/>
      <path id="star_outer_copy_5" data-name="star_outer copy 5" class="cls-118" d="M22230.9,802.67a19.651,19.651,0,1,1-19.7,19.651A19.642,19.642,0,0,1,22230.9,802.67Zm1.6-4.67a24.5,24.5,0,1,1-24.5,24.5A24.52,24.52,0,0,1,22232.5,798Z"/>
      <path id="star_inner_copy_5" data-name="star_inner copy 5" class="cls-90" d="M22232.5,807.009a15.861,15.861,0,1,1-15.8,15.861A15.783,15.783,0,0,1,22232.5,807.009Z"/>
      <path id="star_outer_copy_6" data-name="star_outer copy 6" class="cls-118" d="M6290.95,804.48a18.849,18.849,0,1,1-18.84,18.849A18.839,18.839,0,0,1,6290.95,804.48Zm1.55-4.48a23.5,23.5,0,1,1-23.5,23.5A23.5,23.5,0,0,1,6292.5,800Z"/>
      <path id="star_inner_copy_6" data-name="star_inner copy 6" class="cls-90" d="M6292.5,808.641a15.214,15.214,0,1,1-15.2,15.214A15.2,15.2,0,0,1,6292.5,808.641Z"/>
      <path id="star_outer_copy_7" data-name="star_outer copy 7" class="cls-118" d="M5580.42,2048a25.27,25.27,0,1,1-25.25,25.27A25.267,25.267,0,0,1,5580.42,2048Zm2.08-6a31.5,31.5,0,1,1-31.5,31.5A31.5,31.5,0,0,1,5582.5,2042Z"/>
      <path id="star_inner_copy_7" data-name="star_inner copy 7" class="cls-90" d="M5582.5,2053.58a20.4,20.4,0,1,1-20.38,20.4A20.391,20.391,0,0,1,5582.5,2053.58Z"/>
      <path id="star_outer_copy_8" data-name="star_outer copy 8" class="cls-118" d="M3334.61,1211.57a10.83,10.83,0,1,1-10.82,10.83A10.829,10.829,0,0,1,3334.61,1211.57Zm0.89-2.57a13.5,13.5,0,1,1-13.5,13.5A13.495,13.495,0,0,1,3335.5,1209Z"/>
      <circle id="star_inner_copy_8" data-name="star_inner copy 8" class="cls-119" cx="3335.5" cy="1222.705" r="8.72"/>
      <path id="star_outer_copy_9" data-name="star_outer copy 9" class="cls-118" d="M1453.54,1583.19a17.65,17.65,0,1,1-17.63,17.65A17.645,17.645,0,0,1,1453.54,1583.19ZM1455,1579a22,22,0,1,1-22,22A22,22,0,0,1,1455,1579Z"/>
      <path id="star_inner_copy_9" data-name="star_inner copy 9" class="cls-90" d="M1455,1587.09a14.24,14.24,0,1,1-14.23,14.24A14.237,14.237,0,0,1,1455,1587.09Z"/>
      <path id="star_outer_copy_10" data-name="star_outer copy 10" class="cls-118" d="M366.619,688.863a28.875,28.875,0,1,1-28.857,28.874A28.864,28.864,0,0,1,366.619,688.863ZM369,682a36,36,0,1,1-36,36A36,36,0,0,1,369,682Z"/>
      <path id="star_inner_copy_10" data-name="star_inner copy 10" class="cls-90" d="M369,695.238a23.306,23.306,0,1,1-23.287,23.306A23.3,23.3,0,0,1,369,695.238Z"/>
    </g>
    <g id="Rocks">
      <path id="rock" class="cls-120" d="M2318,6023l1210,21-498-685-504,382Z"/>
      <path id="rock-2" data-name="rock" class="cls-121" d="M3026,5374l128,403-289,257-542-15,201-279Z"/>
      <path id="rock-3" data-name="rock" class="cls-121" d="M3180,6038l141-149,138,151Z"/>
      <path id="shadow-7" data-name="shadow" class="cls-61" d="M3509,6048L2497,6613l-163-590Z"/>
      <path id="rock_copy" data-name="rock copy" class="cls-120" d="M15024,4107.36l-47,.48,19.3-15.84,19.6,8.83Z"/>
      <path id="rock_copy_2" data-name="rock copy 2" class="cls-121" d="M14996.5,4092.35l-5,9.32,11.3,5.94,21-.35-7.8-6.45Z"/>
      <path id="rock_copy_3" data-name="rock copy 3" class="cls-121" d="M14990.5,4107.7l-5.5-3.44-5.3,3.49Z"/>
      <path id="shadow_copy" data-name="shadow copy" class="cls-61" d="M14977.7,4107.93L15017,4121l6.4-13.64Z"/>
      <path id="rock2" class="cls-8" d="M19037,5787l-110-117-144-6-56,128Z"/>
      <path class="cls-7" d="M18862,5670s-65.1,41.21-28,122c-97.9.96-103-2-103-2l55-123Z"/>
      <path class="cls-61" d="M19035,5784l-94,90-144,16-67-99"/>
      <ellipse id="circs" class="cls-122" cx="4837.5" cy="5220" rx="205.5" ry="61"/>
      <ellipse class="cls-122" cx="4443" cy="4981.5" rx="129" ry="29.5"/>
      <ellipse class="cls-122" cx="5300" cy="5024" rx="82" ry="19"/>
      <ellipse class="cls-123" cx="7445" cy="5896" rx="182" ry="29"/>
      <ellipse class="cls-123" cx="7744.5" cy="6037.5" rx="115.5" ry="15.5"/>
      <ellipse class="cls-123" cx="15862.5" cy="5992.5" rx="121.5" ry="20.5"/>
      <ellipse class="cls-123" cx="19172" cy="5852.5" rx="76" ry="16.5"/>
      <ellipse class="cls-123" cx="19140.5" cy="5685" rx="67.5" ry="24"/>
      <ellipse class="cls-124" cx="21933" cy="5425" rx="218" ry="27"/>
      <ellipse class="cls-124" cx="19511" cy="5036.5" rx="114" ry="14.5"/>
      <ellipse class="cls-124" cx="20613" cy="5427" rx="303" ry="41"/>
      <ellipse class="cls-124" cx="15349" cy="5006" rx="178" ry="21"/>
      <ellipse class="cls-124" cx="1191" cy="6556.5" rx="237" ry="41.5"/>
      <ellipse class="cls-124" cx="732" cy="5038" rx="119" ry="21"/>
      <ellipse class="cls-125" cx="12474.5" cy="5529" rx="117.5" ry="35"/>
      <ellipse class="cls-125" cx="12829.5" cy="5347" rx="107.5" ry="17"/>
    </g>
    <g id="cubes">
      <path id="Shape_57_copy" data-name="Shape 57 copy" class="cls-126" d="M11914.3,314.067l-8.4,281.968,290.7,79.118L12162,393.474Z"/>
      <path id="Shape_58_copy" data-name="Shape 58 copy" class="cls-127" d="M11899.5,595.2l-111.8,190.158,253.1,107.69,157-225.611Z"/>
      <path id="Shape_59_copy" data-name="Shape 59 copy" class="cls-128" d="M11793,784.48L11777,579.2l145.6-268.928-15,280.025Z"/>
      <path id="Shape_57_copy_2" data-name="Shape 57 copy 2" class="cls-129" d="M3377.02,1571.56l35.71,71.99,83.76-19.19-46.5-66.13Z"/>
      <path id="Shape_58_copy_2" data-name="Shape 58 copy 2" class="cls-130" d="M3411.02,1644.19l-2.61,62.8,78.12-6.95,9.22-77.78Z"/>
      <path id="Shape_59_copy_2" data-name="Shape 59 copy 2" class="cls-128" d="M3409.63,1706.06l-31.57-49.43,0.52-87.13,33.82,72.37Z"/>
      <path id="Shape_57_copy_3" data-name="Shape 57 copy 3" class="cls-131" d="M1255.77,785.51l-7.08,49.981,49.95,19.858-0.55-50.786Z"/>
      <path id="Shape_58_copy_3" data-name="Shape 58 copy 3" class="cls-132" d="M1247.58,835.215l-23.58,31.6L1266.72,891,1299,854Z"/>
      <path id="Shape_59_copy_3" data-name="Shape 59 copy 3" class="cls-128" d="M1224.96,866.762l1.23-36.829L1257.31,785l-8.2,49.507Z"/>
    </g>
    <path class="cls-133" d="M15807,2091c-18.3,80.88,211,99,211,99h437s54-5.4,54-79-98-85-98-85-83,9.91-83-27,8.2-40,81-40h408s67,3.05,67-68-27.4-66-63-66H15574s-67-3.86-67,68,78,78,78,78h463s39-8.9,39,22-27.6,44-45,44h-147C15844,2037,15816.7,2048.01,15807,2091Z"/>
    <path id="Shape_60_copy" data-name="Shape 60 copy" class="cls-134" d="M10398.8,1795.95c-21.2-72.67,245.3-88.95,245.3-88.95h508.1s62.8,4.85,62.8,70.98-113.9,76.37-113.9,76.37-96.5-8.9-96.5,24.26,9.5,35.94,94.1,35.94h474.4s77.9-2.75,77.9,61.09-31.8,59.3-73.2,59.3H10127.9s-77.9,3.47-77.9-61.09,90.7-70.08,90.7-70.08H10679s45.3,7.99,45.3-19.77-32-39.53-52.3-39.53h-170.9C10441.8,1844.47,10410.1,1834.57,10398.8,1795.95Z"/>
    <path id="Shape_60_copy_2" data-name="Shape 60 copy 2" class="cls-135" d="M6437.07,414.339C6423.05,332.37,6598.88,314,6598.88,314h335.13s41.41,5.47,41.41,80.068-75.16,86.15-75.16,86.15-63.65-10.04-63.65,27.365,6.29,40.541,62.12,40.541h312.89s51.38-3.1,51.38,68.92-20.98,66.893-48.31,66.893H6258.38s-51.38,3.914-51.38-68.92,59.82-79.055,59.82-79.055h355.06s29.91,9.022,29.91-22.3-21.16-44.595-34.51-44.595H6504.55C6465.4,469.069,6444.51,457.91,6437.07,414.339Z"/>
    <path id="Shape_60_copy_4" data-name="Shape 60 copy 4" class="cls-131" d="M19880.1,769.322c-12.4,46.3,143.6,56.678,143.6,56.678h297.4s36.7-3.09,36.7-45.228-66.7-48.663-66.7-48.663-56.4,5.672-56.4-15.457,5.5-22.9,55.1-22.9h277.6s45.6,1.749,45.6-38.93-18.6-37.785-42.9-37.785h-848.5s-45.6-2.211-45.6,38.93,53.1,44.655,53.1,44.655h315s26.6-5.1,26.6,12.6-18.8,25.19-30.7,25.19h-100C19905.3,738.407,19886.7,744.71,19880.1,769.322Z"/>
    <path id="Shape_60_copy_3" data-name="Shape 60 copy 3" class="cls-136" d="M3120,1075c-18.27,80.88,211,99,211,99h437s54-5.4,54-79-98-85-98-85-83,9.91-83-27,8.2-40,81-40h408s67,3.054,67-68-27.36-66-63-66H2887s-67-3.862-67,68,78,78,78,78h463s39-8.9,39,22-27.6,44-45,44H3208C3156.95,1021,3129.71,1032.01,3120,1075Z"/>
    <path class="cls-110" d="M9010,3227l1,640s8.23,64.06,18,94c-3.12-52.95-3-734-3-734h-16Z"/>
    <path id="Shape_61_copy" data-name="Shape 61 copy" class="cls-137" d="M23425,6620l-1374,10-479-179-763,37-446,235-237,20-131-154V6364h-754l-30,284-67,330-499,7-418-185-179-233-370,34-311,167-410,84-291-219-217,206-352-53-157,96-370-9-398-27-119,88-568-26V6631l-199-222-264,120-275,151-295,106-912,116-599-73-279,100-664-108-696,103-362-163-119,119-189-8-262-215-351,169-192,8H8577l-161-48-1263,83-932-236-477,43-946,237V6594l-253-162-536,121L2949,6904l-912-118-781,151-491-47-466,3-625,40,106,538,23789,10Z"/>
    <path class="cls-62" d="M23425,6700l-1374,10-479-179-763,37-446,235-237,20-131-154V6444h-754l-30,284-67,330-499,7-418-185-179-233-370,34-311,167-410,84-291-219-217,206-352-53-157,96-370-9-398-27-119,88-568-26V6711l-199-222-264,120-275,151-295,106-912,116-599-73-279,100-664-108-696,103-362-163-119,119-189-8-262-215-351,169-192,8H8577l-161-48-1263,83-932-236-477,43-946,237V6674l-253-162-536,121L2949,6984l-912-118-781,151-491-47-466,3-625,40,106,538,23789,10Z"/>
    <path class="cls-137" d="M19572,6429l-7,268,155,21-400,301-160-23,80-549Z"/>
    <path class="cls-137" d="M14100,6502l-86,446-445,46-616,35,93-85-125-21S13968,6779.73,14100,6502Z"/>
    <path class="cls-137" d="M4560,6513l-359,359-139-75-171,101-267-31,154-62-216-48,673-221Z"/>
    <path class="cls-137" d="M6609,6769l-479,124-196-15-187,112s-17-88.46-262-50-569.91,56.91-603,28,179-91,179-91l843-184S6497.15,6671.86,6609,6769Z"/>
    <path class="cls-137" d="M15934,9070"/>
    <path class="cls-138" d="M17465,5248.7h-923.4l-0.6-213.27,139.3-122.42,547.2-44.01,116.2,160.79,98.7,33.29Z"/>
    <path id="Shape_79_copy" data-name="Shape 79 copy" class="cls-139" d="M17363.5,5248.7h-731.8l-0.4-201.22,110.4-115.52,433.6-41.52,92.1,151.71,78.2,31.41Z"/>
    <path id="Shape_79_copy_2" data-name="Shape 79 copy 2" class="cls-140" d="M17239.9,5248.7h-475.8l-0.3-155.59,71.8-89.32,282-32.11,59.8,117.31,50.9,24.29Z"/>
    <path class="cls-61" d="M17465,5250.95l-31.6,190.13-47.9,27.65-123,112.27-534.2-39.49-105.5-102.68-71.1-198.03Z"/>
    <path id="Shape_79_copy_3" data-name="Shape 79 copy 3" class="cls-138" d="M11542,4316.93h91.9l0.1-21.87-13.9-12.55-54.5-4.51-11.5,16.49-9.9,3.41Z"/>
    <path id="Shape_79_copy_4" data-name="Shape 79 copy 4" class="cls-139" d="M11552.1,4316.93h72.9V4296.3l-11-11.84-43.2-4.26-9.1,15.55-7.8,3.22Z"/>
    <path id="Shape_79_copy_5" data-name="Shape 79 copy 5" class="cls-140" d="M11564.4,4316.93h47.4v-15.95l-7.1-9.16-28.1-3.29-6,12.03-5,2.48Z"/>
    <path id="Shape_80_copy" data-name="Shape 80 copy" class="cls-61" d="M11542,4317.16l3.1,19.49,4.8,2.84,12.3,11.51,53.2-4.05,10.5-10.53,7-20.3Z"/>
    <path class="cls-138" d="M5404,4453l717,14-39-57-244-58-142-2-106,57-139,6Z"/>
    <path id="Shape_81_copy" data-name="Shape 81 copy" class="cls-139" d="M5404,4457.19l680,9.81-36.99-39.95L5815.6,4386.4l-134.67-1.4-100.53,39.95-131.82,4.2Z"/>
    <path id="Shape_81_copy_2" data-name="Shape 81 copy 2" class="cls-140" d="M5489,4460.94l537,7.06-29.21-28.74-182.74-29.25L5707.69,4409l-79.38,28.74-104.11,3.03Z"/>
    <path class="cls-141" d="M6116,4469l-28,27-311,58-65-5-93-44-103,1-107-51Z"/>
    <path id="Shape_81_copy_3" data-name="Shape 81 copy 3" class="cls-138" d="M7585,3828.25l56,3.43-3.05-13.97-19.05-14.22-11.09-.49-8.28,13.97-10.86,1.47Z"/>
    <path id="Shape_81_copy_4" data-name="Shape 81 copy 4" class="cls-139" d="M7585,3829.27l53.11,2.41-2.89-9.8-18.07-9.96-10.52-.34-7.85,9.79-10.3,1.03Z"/>
    <path id="Shape_81_copy_5" data-name="Shape 81 copy 5" class="cls-140" d="M7591.64,3830.19l41.94,1.73-2.28-7.04-14.27-7.17-8.31-.25-6.2,7.05-8.13.74Z"/>
    <path id="Shape_82_copy" data-name="Shape 82 copy" class="cls-141" d="M7640.61,3832.17l-2.19,6.61L7614.13,3853l-5.07-1.23-7.27-10.78-8.04.25-8.36-12.5Z"/>
    <path class="cls-120" d="M5070.99,4053.98L4876.04,4079l5.09-22.12,61.66-19.59,60.06-15.72,62.07-5.57Z"/>
    <path class="cls-121" d="M4999.67,4022.52l-24.07,21.78,23.51-1.19L4948.94,4069l-72.95,9.25,4.67-21.59Z"/>
  </g>
</svg>
