<svg id="stecker_right" xmlns="http://www.w3.org/2000/svg" width="1980" height="600" viewBox="4.688 1.587 23376.623 7083.825">
  <metadata><?xpacket begin="﻿" id="W5M0MpCehiHzreSzNTczkc9d"?>
<x:xmpmeta xmlns:x="adobe:ns:meta/" x:xmptk="Adobe XMP Core 5.6-c138 79.159824, 2016/09/14-01:09:01        ">
   <rdf:RDF xmlns:rdf="http://www.w3.org/1999/02/22-rdf-syntax-ns#">
      <rdf:Description rdf:about=""/>
   </rdf:RDF>
</x:xmpmeta>
                                                                                                    
                                                                                                    
                                                                                                    
                                                                                                    
                                                                                                    
                                                                                                    
                                                                                                    
                                                                                                    
                                                                                                    
                                                                                                    
                                                                                                    
                                                                                                    
                                                                                                    
                                                                                                    
                                                                                                    
                                                                                                    
                                                                                                    
                                                                                                    
                                                                                                    
                                                                                                    
                           
<?xpacket end="w"?></metadata>
<defs>
    <style>
      .cls-1 {
        fill: #303030;
      }

      .cls-1, .cls-10, .cls-11, .cls-12, .cls-14, .cls-15, .cls-2, .cls-3, .cls-4, .cls-7, .cls-8, .cls-9 {
        fill-rule: evenodd;
      }

      .cls-2 {
        fill: #393939;
      }

      .cls-3 {
        fill: #252525;
      }

      .cls-4 {
        fill: #3d3d3d;
      }

      .cls-5 {
        fill: #1e1e1e;
      }

      .cls-14, .cls-6 {
        fill: #272626;
      }

      .cls-7 {
        fill: #c7c7c7;
      }

      .cls-8 {
        fill: #ffbf67;
      }

      .cls-9 {
        fill: #f5b45b;
      }

      .cls-10 {
        fill: #fccb88;
      }

      .cls-11 {
        fill: #262626;
      }

      .cls-12 {
        fill: #3c3c3c;
      }

      .cls-13 {
        fill: #0b0b0b;
      }

      .cls-15 {
        fill: #3b3a3a;
      }
    </style>
  </defs>
  <path id="cable_r" class="cls-1" d="M17277,3084h7250v671H17298S16964.5,3475.96,17277,3084Z"/>
  <path class="cls-2" d="M23405,3262l-6092-134-10-38,6100,2Z"/>
  <path id="shadow-cabler" class="cls-3" d="M17344,3349s37.3,266.96-37,408c4214.5-67.37,6141-54,6141-54s-3237.3-606.81-4388-370S17344,3349,17344,3349Z"/>
  <path id="stecker_body" class="cls-1" d="M13684,2197h3312s688.8,1020.49,13,2510c-3255.8-16.13-3322,0-3322,0S14119.3,3193.83,13684,2197Z"/>
  <path id="shadow" class="cls-3" d="M13962,3769s2208.8-200.3,2995-1483c111.1,494.91,430.3,935.94,40,2240-3061.8,7.86-3135,32-3135,32S14020.5,4190.56,13962,3769Z"/>
  <path class="cls-4" d="M13926,2330h364s-344.9-44.22-432-106C13934.1,2347.26,13926,2330,13926,2330Z"/>
  <ellipse id="stecker_right-2" data-name="stecker_right" class="cls-5" cx="13689" cy="3449" rx="243" ry="1246"/>
  <ellipse id="stecker_kppf_copy_2" data-name="stecker_kppf copy 2" class="cls-6" cx="13716.5" cy="3457" rx="215.5" ry="1217"/>
  <path class="cls-7" d="M13522,3246l-766,17s-101-.81-101,99,108,108,108,108l787-7S13637.2,3327.12,13522,3246Z"/>
  <path id="Shape_1_copy" data-name="Shape 1 copy" class="cls-7" d="M13756,3571l-766,17s-101-.81-101,99,108,108,108,108l787-7S13871.2,3652.12,13756,3571Z"/>
  <path id="hand_copy" data-name="hand copy" class="cls-8" d="M19555.2-892.619L19418.7,1177.3s-136.2,574.66-499.7,514.48c-363.5-60.16-1298.5-290.62-1295,433.1s11.1,2325.17,11.1,2325.17,47,931,715.9,956.39c669,25.42,2803.5,7.38,2803.5,7.38s1148.2-524.23,1143.5-1498.96c-4.7-974.77-22.7-4735.695-22.7-4735.695S21173.4-1261.94,19555.2-892.619Z"/>
  <path id="handr-shadow" class="cls-9" d="M17632,2104l3,2352s807.6,92.14,723-1235S17632,2104,17632,2104Z"/>
  <path id="light-handr" class="cls-10" d="M22268-10l39,4011S21922.5,866.392,22015-10C22264.8-40.606,22268-10,22268-10Z"/>
  <path id="cable_l" class="cls-1" d="M7104.27,3755H-3190V3084H7074.45S7547.98,3363.04,7104.27,3755Z"/>
  <path id="shad-cable-l" class="cls-11" d="M6686,3200S1875.39,3723.82,455,3524c-1059.714-16.92-559,53-559,53L12,3710l6689,16S6636.06,3565.3,6686,3200Z"/>
  <path class="cls-12" d="M6704,3110l-7,50S174.377,3062.94,11,3149s-61-55-61-55Z"/>
  <path id="stecker_body_l" class="cls-1" d="M8708,2212H7109.2s-992.1,1140.96,90.79,2480.09c1453.61,6.57,1452.65,0,1452.65,0Z"/>
  <path class="cls-3" d="M8497,4601l-1260,57-338-641s1453.53-544.72,1601-1704C8385.32,3042.4,8300.97,3177.02,8497,4601Z"/>
  <ellipse id="stecker_kppf" class="cls-5" cx="8686" cy="3452" rx="243" ry="1246"/>
  <ellipse id="stecker_kppf_copy" data-name="stecker_kppf copy" class="cls-6" cx="8658.5" cy="3441" rx="215.5" ry="1217"/>
  <ellipse id="holel" class="cls-13" cx="8592.5" cy="3613.5" rx="43.5" ry="123.5"/>
  <ellipse id="holer" class="cls-13" cx="8825.5" cy="3297.5" rx="43.5" ry="123.5"/>
  <path class="cls-14" d="M8831,3176l13,3s32.03,37.63,30,150c-19.86,70.05-27.41,87.68-36,91s-21-4-21-4,9.12,3.46,15-11,26.95-89.29,15-139-27.78-84.31-33-82S8815.99,3174.44,8831,3176Z"/>
  <path id="Shape_5_copy" data-name="Shape 5 copy" class="cls-14" d="M8598,3493l13,3s32.03,37.63,30,150c-19.86,70.05-27.41,87.68-36,91s-21-4-21-4,9.12,3.46,15-11,26.95-89.29,15-139-27.78-84.31-33-82S8582.99,3491.44,8598,3493Z"/>
  <path class="cls-15" d="M8528,2256l-1338,16-74,115s1238.79-106.9,1381-87S8528,2256,8528,2256Z"/>
  <path id="hand-l" class="cls-8" d="M4407.07-892.72l139.2,2069.82s138.81,574.63,509.46,514.45c370.65-60.15,1324.01-290.6,1320.47,433.08s-11.36,2325.06-11.36,2325.06-47.92,930.95-729.97,956.34c-682.04,25.42-2858.53,7.38-2858.53,7.38S1605.63,4889.21,1610.4,3914.52c4.76-974.72,23.14-4735.46,23.14-4735.46S2757.07-1262.02,4407.07-892.72Z"/>
  <path id="shadow-handl" class="cls-9" d="M6371,2004l-6,2472s-631.2,172.94-580-1334S6371,2004,6371,2004Z"/>
  <path id="light-handl" class="cls-10" d="M1797,2s-83.18,3235.09-176,3842C1642.26,0.115,1642-4,1642-4Z"/>
</svg>
