<svg xmlns="http://www.w3.org/2000/svg" xmlns:xlink="http://www.w3.org/1999/xlink" width="1980" height="199.825" viewBox="-9.128 0 23404.255 2362">
  <metadata><?xpacket begin="﻿" id="W5M0MpCehiHzreSzNTczkc9d"?>
<x:xmpmeta xmlns:x="adobe:ns:meta/" x:xmptk="Adobe XMP Core 5.6-c138 79.159824, 2016/09/14-01:09:01        ">
   <rdf:RDF xmlns:rdf="http://www.w3.org/1999/02/22-rdf-syntax-ns#">
      <rdf:Description rdf:about=""/>
   </rdf:RDF>
</x:xmpmeta>
                                                                                                    
                                                                                                    
                                                                                                    
                                                                                                    
                                                                                                    
                                                                                                    
                                                                                                    
                                                                                                    
                                                                                                    
                                                                                                    
                                                                                                    
                                                                                                    
                                                                                                    
                                                                                                    
                                                                                                    
                                                                                                    
                                                                                                    
                                                                                                    
                                                                                                    
                                                                                                    
                           
<?xpacket end="w"?></metadata>
<defs>
    <style>
      .cls-1 {
        fill: #170421;
      }

      .cls-1, .cls-2 {
        fill-rule: evenodd;
      }

      .cls-2 {
        fill: #1f072c;
      }

      .cls-3 {
        opacity: 0.2;
      }
    </style>
    <clipPath id="clip-path">
      <rect width="23386" height="2362"/>
    </clipPath>
  </defs>
  <g clip-path="url(#clip-path)">
    <path class="cls-1" d="M23425,607s-4712.6,1217.52-6908,1158S10013.2,466.012,6974,518C3934.76,569.988,1206.5,1077.35-57,1735s-826,782-826,782l196,3224,24528-594Z"/>
    <path class="cls-2" d="M23367,707s-4369.8,1144.3-6275,1135S8828.37,544.956,6687,646,1579.75,2010.31-430,2059-598,336-598,336l249,1051S4280.07,161.317,6626,294s9486.9,1447.87,10300,1421S22392.3,1005.98,23367,707Z"/>
    <path class="cls-2" d="M5139,863l-597,597v433l-383-187-154,97-365-368-791-64L4827,700Z"/>
    <path class="cls-2" d="M16040,1730l720,276,271,98,32-138,178,55,386-45,117-52,294,170,367-400-1367,81-572-48Z"/>
    <path class="cls-2" d="M21652,1076l256,235-115,180,78,169-381-146-113-265-258-56Z"/>
    <path class="cls-2" d="M9902,869l519,307,317,268,483-89,545,15,519,210,326-102h436l-354-117,515-14L10973,947Z"/>
    <circle class="cls-3" cx="15497.5" cy="1259.5" r="113.5"/>
    <circle id="Ellipse_1_copy_8" data-name="Ellipse 1 copy 8" class="cls-3" cx="20557" cy="758" r="36"/>
    <circle id="Ellipse_1_copy_7" data-name="Ellipse 1 copy 7" class="cls-3" cx="17145.5" cy="501.5" r="37.5"/>
    <circle id="Ellipse_1_copy_6" data-name="Ellipse 1 copy 6" class="cls-3" cx="17410" cy="539" r="28"/>
    <circle id="Ellipse_1_copy" data-name="Ellipse 1 copy" class="cls-3" cx="6691" cy="1514" r="182"/>
    <circle id="Ellipse_1_copy_2" data-name="Ellipse 1 copy 2" class="cls-3" cx="6144" cy="1080" r="323"/>
    <circle id="Ellipse_1_copy_4" data-name="Ellipse 1 copy 4" class="cls-3" cx="2265" cy="2157" r="98"/>
    <circle id="Ellipse_1_copy_5" data-name="Ellipse 1 copy 5" class="cls-3" cx="2024.5" cy="2005.5" r="53.5"/>
    <circle id="Ellipse_1_copy_3" data-name="Ellipse 1 copy 3" class="cls-3" cx="11985" cy="2046" r="114"/>
    <circle id="Ellipse_1_copy_9" data-name="Ellipse 1 copy 9" class="cls-3" cx="18984" cy="2006" r="114"/>
    <circle id="Ellipse_1_copy_10" data-name="Ellipse 1 copy 10" class="cls-3" cx="19427.5" cy="1806.5" r="85.5"/>
    <circle id="Ellipse_1_copy_12" data-name="Ellipse 1 copy 12" class="cls-3" cx="22610" cy="1190" r="127"/>
    <circle id="Ellipse_1_copy_11" data-name="Ellipse 1 copy 11" class="cls-3" cx="19675" cy="2245" r="46"/>
  </g>
</svg>
