<svg xmlns="http://www.w3.org/2000/svg" xmlns:xlink="http://www.w3.org/1999/xlink" width="1980" height="199.825" viewBox="-9.128 0 23404.255 2362">
  <metadata><?xpacket begin="﻿" id="W5M0MpCehiHzreSzNTczkc9d"?>
<x:xmpmeta xmlns:x="adobe:ns:meta/" x:xmptk="Adobe XMP Core 5.6-c138 79.159824, 2016/09/14-01:09:01        ">
   <rdf:RDF xmlns:rdf="http://www.w3.org/1999/02/22-rdf-syntax-ns#">
      <rdf:Description rdf:about=""/>
   </rdf:RDF>
</x:xmpmeta>
                                                                                                    
                                                                                                    
                                                                                                    
                                                                                                    
                                                                                                    
                                                                                                    
                                                                                                    
                                                                                                    
                                                                                                    
                                                                                                    
                                                                                                    
                                                                                                    
                                                                                                    
                                                                                                    
                                                                                                    
                                                                                                    
                                                                                                    
                                                                                                    
                                                                                                    
                                                                                                    
                           
<?xpacket end="w"?></metadata>
<defs>
    <style>
      .cls-1 {
        fill: #250636;
      }

      .cls-1, .cls-2 {
        fill-rule: evenodd;
      }

      .cls-2 {
        fill: #1d042b;
      }

      .cls-3 {
        opacity: 0.2;
      }
    </style>
    <clipPath id="clip-path">
      <rect width="23386" height="2362"/>
    </clipPath>
  </defs>
  <g clip-path="url(#clip-path)">
    <path id="Shape_1_copy" data-name="Shape 1 copy" class="cls-1" d="M-541,395S4171.64,1612.52,6367,1553,12870.8,254.012,15910,306s5767.5,559.355,7031,1217,826,782,826,782l-196,3224L-957,4935Z"/>
    <path class="cls-2" d="M-541,596S4171.64,1813.52,6367,1754,12870.8,455.012,15910,507s5767.5,559.35,7031,1217,826,782,826,782l-196,3224L-957,5136Z"/>
    <path class="cls-1" d="M23113,1717l-529,176-180-325-243,196-269-345-140-223Z"/>
    <path class="cls-1" d="M18916,647l-312,353,170,270-405,209-19,258-267-326,84-520-376-180-92-169Z"/>
    <path class="cls-1" d="M15789,386l-559,171-542,140-313,145-601-133-720,337-90,375-244-244-337-257,150-225Z"/>
    <path class="cls-1" d="M8531,1439l-925,550-421,241-203-66-236,50-305-198-296-315Z"/>
    <path class="cls-1" d="M2582,1213l-418,188-466,201-401-279L874,1441,670,1081,472,791Z"/>
    <circle class="cls-3" cx="15497.5" cy="1259.5" r="113.5"/>
    <circle id="Ellipse_1_copy_8" data-name="Ellipse 1 copy 8" class="cls-3" cx="20557" cy="758" r="36"/>
    <circle id="Ellipse_1_copy_7" data-name="Ellipse 1 copy 7" class="cls-3" cx="17145.5" cy="501.5" r="37.5"/>
    <circle id="Ellipse_1_copy_6" data-name="Ellipse 1 copy 6" class="cls-3" cx="17410" cy="539" r="28"/>
    <circle id="Ellipse_1_copy" data-name="Ellipse 1 copy" class="cls-3" cx="6691" cy="1514" r="182"/>
    <circle id="Ellipse_1_copy_2" data-name="Ellipse 1 copy 2" class="cls-3" cx="6144" cy="1080" r="323"/>
    <circle id="Ellipse_1_copy_4" data-name="Ellipse 1 copy 4" class="cls-3" cx="2265" cy="2157" r="98"/>
    <circle id="Ellipse_1_copy_5" data-name="Ellipse 1 copy 5" class="cls-3" cx="2024.5" cy="2005.5" r="53.5"/>
    <circle id="Ellipse_1_copy_3" data-name="Ellipse 1 copy 3" class="cls-3" cx="11985" cy="2046" r="114"/>
    <circle id="Ellipse_1_copy_9" data-name="Ellipse 1 copy 9" class="cls-3" cx="18984" cy="2006" r="114"/>
    <circle id="Ellipse_1_copy_10" data-name="Ellipse 1 copy 10" class="cls-3" cx="19427.5" cy="1806.5" r="85.5"/>
    <circle id="Ellipse_1_copy_12" data-name="Ellipse 1 copy 12" class="cls-3" cx="22610" cy="1190" r="127"/>
    <circle id="Ellipse_1_copy_11" data-name="Ellipse 1 copy 11" class="cls-3" cx="19675" cy="2245" r="46"/>
  </g>
</svg>
